<?xml version="1.0" standalone="no"?>
<!DOCTYPE svg PUBLIC "-//W3C//DTD SVG 20010904//EN"
 "http://www.w3.org/TR/2001/REC-SVG-20010904/DTD/svg10.dtd">
<svg version="1.0" xmlns="http://www.w3.org/2000/svg"
 width="300.000000pt" height="400.000000pt" viewBox="0 0 300.000000 400.000000"
 preserveAspectRatio="xMidYMid meet">
<metadata>
Created by potrace 1.10, written by Peter Selinger 2001-2011
</metadata>
<g transform="translate(0.000000,400.000000) scale(0.100000,-0.100000)"
fill="#000000" stroke="none">
<path d="M1865 3988 c-19 -57 -59 -295 -64 -388 -4 -61 11 -190 21 -184 6 4 9
1 6 -7 -2 -7 1 -24 8 -37 14 -28 7 -62 -13 -62 -8 0 -11 -4 -8 -10 10 -15 25
-12 32 8 4 9 10 20 15 23 5 3 2 21 -6 41 -8 19 -19 68 -23 109 -14 127 25 440
63 496 13 21 13 23 -6 23 -11 0 -23 -6 -25 -12z"/>
<path d="M2042 3988 c19 -15 108 -145 108 -158 0 -4 18 -47 40 -95 38 -82 52
-155 30 -155 -5 0 -10 -4 -10 -10 0 -22 30 4 40 35 10 30 7 43 -28 125 -22 50
-48 101 -59 113 -18 22 -21 27 -30 57 -2 8 -11 26 -19 40 -9 14 -18 33 -21 43
-3 11 -16 17 -36 17 -26 0 -29 -2 -15 -12z"/>
<path d="M1976 3962 c-3 -2 -2 -10 0 -17 3 -7 1 -16 -5 -20 -6 -3 -11 -12 -11
-18 0 -11 49 42 50 54 0 7 -28 8 -34 1z"/>
<path d="M2018 3933 c-21 -5 -23 -22 -4 -29 8 -3 12 -14 8 -27 -3 -12 -1 -18
4 -14 4 4 9 24 9 42 1 19 1 34 1 34 -1 -1 -9 -3 -18 -6z"/>
<path d="M1919 3897 c-17 -13 -36 -59 -22 -55 10 4 13 -7 6 -32 -3 -11 -9 -17
-14 -14 -5 3 -9 -7 -10 -23 0 -15 -2 -37 -5 -48 -8 -39 -10 -236 -2 -241 5 -3
6 -10 2 -15 -3 -5 -1 -15 4 -22 5 -7 8 -20 7 -30 -4 -23 11 -13 18 13 3 11 1
18 -4 14 -15 -9 -10 27 7 43 11 11 12 19 5 26 -6 6 -11 23 -11 38 0 15 -5 31
-11 35 -8 4 -7 9 2 15 11 7 10 9 -3 9 -22 0 -23 9 -3 24 9 6 18 30 20 54 5 47
-1 53 -16 20 -8 -20 -9 -19 -3 7 3 17 10 32 15 33 5 2 9 8 9 13 0 6 -4 7 -10
4 -5 -3 -10 -2 -10 4 0 6 10 15 21 22 17 9 19 13 8 20 -8 5 -9 9 -3 9 6 0 16
11 22 25 11 24 10 25 -8 15 -16 -9 -20 -8 -20 5 0 10 5 13 12 9 6 -4 8 -3 4 4
-3 6 2 12 11 14 10 2 13 6 8 10 -6 3 -17 1 -26 -5z"/>
<path d="M1990 3880 c-8 -5 -15 -20 -16 -34 0 -14 3 -23 8 -20 5 3 7 8 4 12
-3 3 2 10 11 17 20 15 14 38 -7 25z"/>
<path d="M1952 3754 c-12 -8 -22 -22 -22 -31 0 -11 6 -7 21 11 18 23 23 25 38
14 14 -12 15 -11 2 5 -16 20 -12 20 -39 1z"/>
<path d="M2059 3706 c-3 -3 -20 -8 -38 -10 -17 -2 -35 -7 -39 -11 -4 -4 3 -5
16 -2 29 7 25 -13 -6 -29 -36 -18 -58 -42 -59 -66 0 -13 1 -17 4 -11 2 7 4 15
4 18 -1 6 37 45 45 45 3 0 2 -4 -1 -10 -10 -16 13 -11 27 6 36 43 49 53 63 48
8 -4 15 -1 15 6 0 6 -4 9 -9 6 -5 -4 -11 -1 -13 5 -2 5 -6 8 -9 5z"/>
<path d="M2049 3654 c-11 -13 -9 -14 17 -9 22 5 25 4 14 -4 -13 -9 -11 -11 7
-11 16 0 20 5 16 20 -6 24 -35 26 -54 4z"/>
<path d="M1994 3583 c-19 -19 -32 -39 -28 -44 3 -6 -2 -20 -13 -31 -12 -14
-14 -22 -6 -25 7 -2 9 -12 6 -21 -4 -12 -3 -14 5 -7 6 6 12 21 14 35 2 14 7
31 11 38 5 7 3 12 -5 13 -12 0 24 18 47 23 6 1 20 7 32 14 12 7 29 12 38 12
34 0 7 25 -29 27 -30 1 -44 -5 -72 -34z m76 12 c-14 -7 -29 -14 -35 -15 -5 -1
-18 -6 -27 -11 -12 -6 -18 -6 -18 0 0 15 44 36 77 38 l28 1 -25 -13z"/>
<path d="M151 3593 c-1 -7 -8 -13 -17 -13 -9 0 -12 -5 -8 -12 5 -10 4 -10 -5
-2 -7 6 -23 9 -37 6 -19 -3 -22 -7 -13 -18 9 -11 8 -15 -5 -20 -23 -9 -20 -24
6 -24 12 0 18 3 15 6 -3 4 -2 14 3 24 6 12 18 16 42 13 23 -3 29 -1 19 5 -10
7 -10 11 -1 14 7 2 10 11 7 19 -3 9 -6 10 -6 2z"/>
<path d="M170 3589 c0 -5 9 -9 20 -9 23 0 54 -16 82 -42 10 -10 24 -18 31 -17
6 0 2 5 -10 11 -13 6 -23 18 -22 27 0 10 2 12 6 4 2 -7 15 -13 28 -13 12 0 40
-6 61 -12 22 -7 52 -13 68 -13 18 0 40 -10 54 -24 19 -19 26 -21 33 -10 6 10
9 10 9 2 0 -17 27 -17 32 -1 3 9 10 8 22 -5 10 -9 21 -15 25 -12 5 2 17 -5 29
-15 12 -11 26 -20 31 -20 6 0 24 -13 41 -30 17 -16 35 -30 40 -30 6 0 9 -5 8
-12 -2 -6 9 -18 24 -25 15 -8 36 -25 47 -39 11 -14 23 -24 26 -24 11 2 49 -43
70 -83 24 -46 38 -48 23 -5 -17 49 -257 276 -278 263 -6 -4 -10 -2 -10 4 0 13
-47 38 -96 50 -22 5 -57 16 -79 24 -22 8 -61 17 -87 20 -26 3 -57 11 -69 18
-12 6 -36 13 -53 15 -17 2 -48 6 -68 8 -21 3 -38 1 -38 -5z"/>
<path d="M2256 3562 c-3 -6 1 -16 10 -23 13 -10 17 -10 25 2 8 10 8 8 4 -10
-4 -13 -3 -21 2 -18 5 3 9 -2 10 -11 1 -9 4 -34 8 -54 6 -32 5 -36 -11 -34
-10 2 -22 14 -25 27 -7 23 -7 23 -8 2 -1 -12 4 -25 9 -28 6 -3 11 -18 11 -33
l1 -27 8 30 c7 28 8 29 10 5 1 -23 2 -23 10 -5 7 16 9 17 9 3 1 -22 13 -29 30
-18 11 6 11 12 -3 31 -9 13 -16 36 -16 52 0 30 -38 113 -47 103 -4 -3 -12 -1
-19 5 -7 6 -14 6 -18 1z"/>
<path d="M2046 3544 c-9 -9 -23 -17 -31 -18 -9 -1 -15 -6 -15 -12 0 -15 14
-10 50 18 19 15 30 28 23 28 -6 0 -19 -7 -27 -16z"/>
<path d="M2115 3538 c-4 -12 -2 -25 6 -32 8 -6 10 -7 6 -2 -4 5 0 17 8 26 14
15 14 18 1 23 -9 4 -17 -2 -21 -15z"/>
<path d="M2036 3483 c-47 -57 -53 -69 -40 -76 10 -6 20 -5 27 3 9 10 9 11 -3
5 -10 -6 -9 -2 3 13 11 11 16 25 12 31 -3 6 0 8 8 5 16 -6 16 -19 1 -49 -6
-12 -8 -30 -3 -45 l8 -25 -1 25 c-1 32 11 62 23 54 5 -3 6 -10 3 -16 -4 -7 -2
-8 4 -4 18 11 15 47 -2 40 -17 -7 -16 17 2 38 9 11 9 18 -1 28 -10 10 -9 12 3
8 11 -4 16 1 17 13 1 10 0 19 -2 19 -2 0 -29 -30 -59 -67z"/>
<path d="M2144 3525 c-15 -11 -16 -15 -4 -15 8 0 2 -8 -13 -16 -16 -9 -26 -18
-23 -21 3 -3 17 2 32 11 14 10 23 20 20 23 -3 4 -1 12 5 20 15 17 8 17 -17 -2z"/>
<path d="M2212 3528 c-6 -8 -10 -17 -7 -20 3 -3 -2 -22 -10 -44 l-16 -39 20
25 c11 14 21 31 21 38 0 17 17 15 24 -4 4 -10 -1 -23 -12 -33 -12 -10 -17 -23
-13 -34 5 -15 11 -10 28 24 21 41 21 43 4 58 -10 9 -20 22 -22 30 -4 11 -7 11
-17 -1z"/>
<path d="M2450 3470 c-13 -25 -2 -25 30 0 25 19 25 20 3 20 -12 0 -27 -9 -33
-20z"/>
<path d="M2147 3462 c-15 -9 -27 -23 -27 -32 0 -13 2 -13 11 0 8 12 10 9 6
-12 -2 -16 0 -28 4 -28 5 0 9 11 9 25 0 14 4 25 9 25 9 0 24 30 19 36 -2 1
-16 -5 -31 -14z"/>
<path d="M543 3442 c10 -10 17 -26 17 -35 0 -9 5 -17 10 -17 6 0 10 7 10 15 0
17 -30 55 -44 55 -5 0 -2 -8 7 -18z"/>
<path d="M1915 3431 c-3 -6 -8 -22 -11 -35 -3 -21 -1 -23 18 -18 21 5 22 4 8
-12 -16 -20 -22 -46 -10 -46 4 0 13 7 20 15 11 13 10 15 -6 9 -18 -5 -18 -5
-1 9 20 17 22 43 5 50 -10 4 -10 6 0 6 8 1 16 -8 19 -19 4 -16 8 -18 19 -9 11
9 16 6 23 -12 6 -16 10 -18 10 -8 1 9 -6 22 -14 29 -8 7 -15 9 -15 4 0 -4 -13
5 -29 20 -18 18 -31 24 -36 17z"/>
<path d="M410 3402 c0 -5 10 -19 22 -32 l22 -23 -24 6 c-13 3 -30 1 -37 -5 -9
-7 -14 -6 -19 6 -3 9 -11 16 -16 16 -6 0 -8 -6 -5 -14 3 -8 -1 -17 -9 -20 -9
-3 -12 -11 -8 -18 5 -7 2 -9 -8 -6 -9 4 -15 0 -15 -8 0 -8 9 -14 19 -14 10 0
18 4 18 8 0 5 13 7 30 4 16 -2 28 -9 27 -15 -1 -5 9 -13 23 -17 25 -8 25 -8
-7 -15 -25 -6 -29 -10 -20 -20 7 -8 16 -10 22 -4 5 5 17 9 27 9 10 0 18 6 18
14 0 18 37 17 44 0 3 -7 21 -17 40 -24 20 -6 34 -15 31 -20 -3 -4 2 -10 10
-14 24 -9 17 12 -10 30 -14 9 -23 20 -20 24 3 5 -4 6 -15 3 -14 -4 -20 0 -20
11 0 16 -21 21 -64 17 -11 -1 -17 2 -13 6 4 3 -7 13 -24 20 -32 13 -33 25 -3
29 8 1 27 -4 41 -11 15 -8 31 -11 37 -7 6 4 -1 8 -16 10 -16 2 -28 9 -28 17 0
10 9 11 42 3 23 -5 48 -14 55 -20 10 -8 13 -5 11 13 -4 32 -15 39 -63 39 -23
0 -47 6 -54 13 -10 10 -11 8 -5 -8 7 -18 6 -18 -9 -6 -9 7 -14 17 -11 22 3 5
0 9 -5 9 -6 0 -11 -4 -11 -8z"/>
<path d="M2524 3384 c-27 -15 -60 -30 -73 -33 l-23 -7 27 -24 c66 -60 91 -93
99 -130 2 -9 41 -65 58 -84 14 -16 15 -22 5 -35 -10 -14 -10 -14 5 -3 13 11
15 19 7 39 -15 40 -59 114 -102 171 -45 59 -43 69 25 103 37 19 47 29 29 29
-4 0 -30 -12 -57 -26z"/>
<path d="M1780 3381 c-13 -26 -13 -48 2 -57 6 -4 8 -3 4 4 -3 6 -2 13 3 16 5
3 7 16 3 28 -3 14 -2 19 6 14 7 -4 12 -2 12 3 0 18 -19 12 -30 -8z"/>
<path d="M2160 3347 c0 -10 -4 -15 -10 -12 -5 3 -10 -1 -10 -10 0 -9 5 -13 11
-9 8 4 9 0 4 -15 -5 -15 -2 -21 10 -21 12 0 14 7 9 28 -4 21 -3 24 5 12 6 -8
11 -10 11 -4 0 5 -7 19 -15 30 -13 18 -14 18 -15 1z"/>
<path d="M2224 3352 c-13 -9 -26 -54 -13 -46 5 3 9 -2 9 -10 0 -9 -7 -16 -15
-16 -8 0 -15 -4 -15 -9 0 -5 -3 -18 -7 -28 -3 -10 -3 -15 2 -11 4 4 14 -4 22
-18 17 -34 17 -45 -2 -38 -8 4 -15 12 -15 19 0 23 -15 24 -16 2 -1 -12 -6 -51
-12 -87 -7 -36 -14 -78 -17 -95 -3 -16 -2 -24 1 -17 4 9 13 5 31 -14 13 -14
26 -24 29 -21 11 10 -9 84 -22 84 -8 0 -14 -7 -14 -15 0 -9 -3 -13 -6 -9 -10
10 7 48 18 41 7 -4 8 -2 4 4 -11 18 16 49 39 46 11 -2 21 -8 23 -14 2 -5 8 -8
13 -4 5 3 9 -3 10 -13 0 -11 3 -13 6 -5 3 7 -1 20 -8 30 -7 9 -10 14 -5 10 11
-9 39 19 31 32 -3 5 -1 10 4 10 19 0 12 28 -9 35 -20 6 -20 7 1 38 l21 32 -24
-28 c-19 -22 -26 -25 -37 -15 -10 11 -12 10 -9 -1 2 -7 -3 -16 -11 -19 -10 -3
-12 0 -8 12 4 9 3 14 -2 11 -5 -3 -13 4 -16 16 -5 14 -2 25 6 30 10 6 16 2 20
-14 5 -19 6 -17 11 11 3 20 0 36 -9 43 -15 13 -18 33 -3 24 6 -3 10 1 10 9 0
18 -1 19 -16 8z m31 -162 c-7 -21 10 -29 18 -7 2 6 8 9 12 5 5 -5 2 -20 -5
-35 -11 -23 -14 -25 -17 -10 -6 22 -12 22 -34 -5 -13 -14 -19 -17 -19 -7 -1 8
-8 1 -17 -16 -9 -16 -18 -25 -20 -18 -6 18 15 53 32 53 8 0 21 14 30 30 18 34
30 40 20 10z"/>
<path d="M1978 3325 c-6 -30 5 -55 26 -55 8 0 8 2 -1 8 -6 4 -13 23 -15 42
l-3 35 -7 -30z"/>
<path d="M2095 3321 c-7 -33 -4 -53 10 -63 6 -5 4 -8 -5 -8 -12 0 -12 -2 -1
-9 10 -6 10 -13 3 -28 -6 -10 -7 -25 -3 -32 12 -19 13 -129 1 -111 -5 8 -10
25 -10 38 0 12 -5 22 -11 22 -6 0 -8 -7 -5 -16 3 -8 2 -12 -4 -9 -22 14 -8
-26 17 -50 41 -37 51 -32 55 29 2 40 0 52 -9 49 -20 -8 -15 21 5 36 16 11 19
30 12 66 -2 6 -5 -5 -9 -23 -6 -33 -22 -44 -30 -21 -2 7 1 9 8 5 12 -8 16 46
4 58 -11 11 -13 77 -2 71 5 -4 6 1 3 9 -9 25 -22 19 -29 -13z"/>
<path d="M1741 3323 c-5 -10 -13 -17 -18 -16 -4 1 -6 -6 -5 -15 3 -12 0 -13
-10 -6 -8 5 -3 -1 10 -12 14 -12 21 -27 18 -33 -4 -6 0 -11 9 -11 9 0 13 -5
10 -10 -4 -6 -12 -7 -18 -4 -9 5 -9 4 0 -6 9 -10 15 -10 27 3 14 13 14 16 1
21 -8 3 -15 14 -15 25 0 11 -5 21 -12 23 -6 2 -8 10 -4 17 5 7 14 10 21 7 8
-3 11 2 8 15 -6 23 -9 24 -22 2z"/>
<path d="M2058 3333 c9 -4 8 -12 -4 -36 -33 -62 -34 -67 -24 -67 5 0 10 6 10
13 0 8 4 7 11 -3 8 -12 9 -10 4 8 -4 12 -2 22 4 22 5 0 11 -8 14 -17 2 -10 3
6 3 35 0 41 -3 52 -15 51 -11 0 -12 -2 -3 -6z"/>
<path d="M2273 3329 c2 -8 10 -13 16 -11 14 3 14 -11 0 -25 -8 -8 -7 -13 2
-18 7 -5 10 -4 7 1 -7 11 17 35 26 27 3 -4 6 -2 6 4 0 6 -8 13 -17 17 -10 3
-24 9 -32 12 -9 4 -12 2 -8 -7z"/>
<path d="M250 3321 c0 -5 10 -16 23 -25 15 -12 16 -15 5 -12 -25 8 -31 -10
-13 -38 13 -19 13 -25 3 -29 -7 -2 -5 -3 5 -1 10 1 21 -4 24 -12 8 -20 -14
-43 -36 -37 -23 6 -64 60 -56 73 3 6 -3 10 -14 10 -12 0 -21 -6 -21 -12 0 -10
-3 -9 -9 1 -5 8 -16 11 -30 6 -27 -8 -17 -25 16 -25 17 0 27 -7 30 -21 3 -11
9 -16 12 -11 4 7 13 5 25 -4 17 -12 18 -14 3 -14 -9 0 -17 -5 -17 -10 0 -7 6
-7 19 0 12 6 22 6 26 1 3 -5 -4 -13 -16 -16 -11 -4 -18 -9 -16 -12 3 -2 26 3
51 11 25 9 53 13 62 9 12 -4 15 -3 10 5 -6 11 7 16 54 24 8 1 25 -3 38 -10 14
-8 22 -9 22 -2 0 5 -7 10 -15 10 -8 0 -15 7 -15 16 0 14 -8 16 -47 11 -39 -5
-53 -3 -73 13 -22 17 -22 20 -6 20 15 0 17 5 11 28 -10 40 -55 84 -55 53z"/>
<path d="M530 3305 c0 -15 25 -27 34 -17 4 3 16 7 28 9 17 3 19 1 8 -12 -7 -8
-8 -15 -2 -15 5 0 15 7 22 15 10 12 8 15 -12 19 -61 13 -78 13 -78 1z"/>
<path d="M2331 3283 c-9 -20 -9 -29 0 -37 7 -6 9 -6 6 -1 -3 6 1 21 9 35 7 14
14 19 15 13 1 -7 3 -17 4 -23 1 -5 3 -16 4 -22 1 -7 8 -2 15 11 13 23 12 26
-11 38 -32 16 -28 18 -42 -14z"/>
<path d="M2416 3284 c-9 -8 -16 -18 -16 -21 0 -14 43 -41 58 -36 11 5 14 2 10
-9 -4 -8 -1 -15 6 -15 7 0 13 6 13 14 0 7 -4 13 -8 13 -5 0 -18 10 -30 23 -12
12 -18 16 -14 8 5 -9 4 -12 -3 -7 -9 5 -9 13 -2 27 13 23 7 25 -14 3z"/>
<path d="M1830 3279 l-25 -7 28 -1 c19 -1 26 -5 21 -13 -4 -7 -3 -8 4 -4 7 4
12 4 12 -1 0 -18 -16 -30 -36 -28 -15 1 -21 -4 -19 -14 2 -18 44 -24 62 -9 7
6 14 5 20 -4 10 -16 53 -19 53 -4 0 6 -11 12 -25 12 -29 2 -57 22 -49 35 3 5
-1 17 -8 27 -10 13 -20 16 -38 11z"/>
<path d="M1930 3263 c0 -6 7 -13 15 -17 9 -3 12 -12 8 -23 -4 -12 -3 -15 4 -8
17 16 26 55 13 55 -6 0 -8 -4 -5 -10 9 -14 -8 -13 -23 2 -8 8 -12 8 -12 1z"/>
<path d="M91 3242 c-7 -14 -2 -22 27 -41 l37 -24 -26 29 c-15 16 -24 35 -22
42 7 18 -5 14 -16 -6z"/>
<path d="M2383 3233 c-7 -3 -13 -10 -13 -18 0 -7 -10 -20 -22 -30 -22 -16 -22
-16 4 -1 19 11 28 12 30 4 3 -9 6 -9 12 0 4 7 2 12 -5 12 -8 0 -8 4 1 15 14
17 11 24 -7 18z"/>
<path d="M28 3205 c12 -22 50 -65 58 -65 3 0 2 6 -3 13 -10 16 -13 37 -5 37
10 -1 47 -30 45 -35 -7 -12 -2 -25 8 -25 8 0 7 6 -2 18 -11 14 -10 13 9 -2 23
-20 30 -32 11 -20 -7 4 -10 1 -7 -6 2 -8 14 -14 26 -15 15 -1 19 2 13 8 -7 7
-7 15 2 26 6 8 7 12 1 8 -5 -3 -23 3 -40 14 -46 31 -87 52 -80 40 11 -17 -5
-13 -27 7 -19 16 -20 16 -9 -3z"/>
<path d="M2048 3213 c-10 -2 -18 -8 -18 -13 0 -10 -20 -8 -38 4 -8 5 -19 3
-25 -4 -7 -6 -7 -11 -2 -10 20 4 36 0 31 -8 -2 -4 7 -8 21 -7 14 0 28 -6 31
-14 3 -8 0 -11 -6 -7 -6 3 -13 3 -16 -2 -2 -4 6 -8 20 -8 20 0 23 4 18 21 -4
11 -12 23 -18 27 -8 6 -8 8 1 8 7 0 17 -8 22 -17 6 -10 11 -13 11 -6 0 6 -5
15 -11 19 -8 4 -7 9 2 15 15 9 6 10 -23 2z"/>
<path d="M1696 3188 c1 -13 3 -26 3 -30 1 -5 6 -8 12 -8 6 0 9 7 5 15 -3 8 -2
15 3 15 5 0 11 -9 14 -20 3 -11 10 -20 15 -20 6 0 6 9 -1 25 -7 14 -18 25 -24
25 -7 0 -13 5 -13 10 0 6 -4 10 -8 10 -5 0 -8 -10 -6 -22z"/>
<path d="M1788 3175 c2 -14 8 -22 13 -19 5 3 12 -1 15 -9 3 -8 22 -18 42 -22
48 -9 85 -33 78 -51 -3 -7 -2 -13 2 -13 36 6 48 -2 44 -29 -2 -17 2 -33 12
-41 8 -7 13 -18 10 -25 -6 -16 35 -44 59 -40 9 1 17 -2 17 -7 0 -5 -5 -9 -11
-9 -8 0 -9 -4 0 -13 11 -14 5 -27 -11 -27 -5 0 -13 12 -19 26 -5 15 -12 24
-15 22 -7 -8 17 -56 32 -62 7 -3 15 2 18 10 3 9 11 12 18 8 10 -6 11 -4 1 7
-15 15 -17 29 -4 29 5 0 12 -8 15 -17 3 -10 24 -38 47 -63 22 -24 45 -52 50
-62 5 -10 29 -27 52 -39 l42 -21 -36 35 c-49 46 -69 82 -73 134 0 11 -5 19
-10 16 -5 -4 -6 7 -2 23 5 24 4 26 -5 11 -6 -11 -9 -29 -6 -42 2 -15 -1 -26
-11 -30 -9 -3 -12 0 -9 9 4 11 1 13 -11 9 -9 -3 -14 -3 -10 2 9 9 -5 37 -42
85 -15 19 -36 58 -45 85 -22 59 -23 61 -55 70 -20 6 -23 5 -12 -6 18 -19 15
-32 -5 -21 -9 6 -17 17 -19 25 -1 12 7 14 45 11 35 -4 42 -2 29 6 -10 6 -19
10 -20 9 -2 -1 -13 3 -25 10 -18 9 -23 9 -23 -1 0 -9 -3 -9 -11 -1 -6 6 -18 9
-27 6 -8 -4 -13 -2 -10 3 3 5 0 15 -8 22 -8 7 -14 9 -14 4 0 -16 -70 -13 -76
3 -10 24 -22 17 -16 -10z"/>
<path d="M20 3175 c11 -13 10 -14 -4 -9 -22 8 -21 -15 1 -32 17 -13 17 -14 -2
-8 -20 6 -20 5 -1 -10 11 -9 25 -16 30 -16 7 0 6 3 -1 8 -7 4 -9 13 -4 20 5 9
13 7 29 -8 26 -25 26 -24 7 -43 -13 -13 -13 -16 0 -21 9 -3 15 0 15 8 0 15 35
11 58 -7 8 -6 12 -6 12 1 0 13 -53 58 -91 78 -16 8 -29 21 -29 28 0 8 -7 17
-16 20 -14 5 -15 4 -4 -9z"/>
<path d="M2403 3169 c-13 -5 -23 -11 -23 -14 0 -4 5 -3 10 0 6 3 10 2 10 -3 0
-8 -45 -35 -62 -36 -4 -1 -13 -8 -20 -16 -11 -12 -11 -12 3 -2 9 6 19 9 22 6
8 -9 -21 -64 -33 -64 -17 0 -69 -94 -76 -136 -7 -46 2 -67 48 -126 16 -21 27
-41 24 -46 -8 -14 8 -30 38 -38 22 -5 27 -4 21 6 -5 8 -1 18 11 27 17 13 16
14 -13 9 -32 -6 -37 3 -20 32 5 7 3 12 -6 12 -14 0 -54 37 -46 43 123 85 158
161 111 242 -30 50 -28 57 18 54 21 -2 43 1 47 6 4 4 2 5 -4 1 -7 -4 -13 -2
-13 3 0 6 9 11 21 11 15 0 19 -5 15 -16 -3 -9 -2 -12 5 -8 7 4 9 -6 7 -27 -2
-24 -7 -33 -18 -31 -8 2 -12 0 -7 -4 4 -4 16 -8 27 -9 16 -1 20 4 18 24 -2 20
2 27 20 29 12 2 22 -1 22 -7 0 -6 -7 -8 -15 -5 -18 7 -20 -7 -4 -23 13 -13 3
-73 -12 -73 -6 0 -7 5 -4 10 3 6 -2 10 -12 10 -15 0 -16 2 -3 10 13 8 13 10
-2 10 -17 0 -39 -30 -45 -60 -4 -22 5 -42 17 -35 6 4 6 15 0 30 -9 24 2 36 14
16 3 -5 15 -7 26 -4 24 6 25 0 4 -32 -10 -15 -12 -25 -5 -25 6 0 11 7 11 15 0
8 5 15 11 15 6 0 9 9 6 19 -3 11 1 29 9 39 8 11 15 29 17 41 2 11 6 24 10 27
10 11 8 36 -2 29 -5 -3 -13 0 -16 6 -4 5 -13 8 -20 5 -13 -5 -30 21 -26 39 2
5 0 7 -4 3 -3 -3 -18 0 -32 7 -23 12 -28 11 -44 -8 -9 -12 -21 -18 -25 -14 -5
4 -2 12 6 17 21 13 9 19 -17 9z m-17 -130 c28 -55 3 -112 -77 -171 -27 -21
-41 -22 -57 -6 -17 17 -15 28 6 21 13 -5 14 -3 5 7 -6 7 -10 18 -8 24 2 6 6
23 9 39 7 31 18 34 41 11 23 -23 31 -9 11 21 -9 14 -12 25 -6 25 6 0 9 4 6 9
-8 12 23 23 37 14 8 -5 8 -2 0 9 -12 14 -8 28 8 28 5 0 16 -14 25 -31z"/>
<path d="M1541 3125 c-33 -47 -48 -53 -83 -34 -23 13 -148 37 -223 44 -136 13
-177 13 -210 -1 -30 -12 -36 -12 -49 2 -15 14 -20 11 -17 -8 2 -13 -37 -9 -42
5 -3 6 -6 2 -6 -10 -1 -12 -5 -25 -11 -28 -5 -3 -10 -15 -10 -26 0 -10 -5 -19
-10 -19 -13 0 -29 41 -23 58 3 6 -2 12 -11 12 -14 0 -15 -4 -6 -20 6 -11 7
-20 2 -20 -5 0 -9 -7 -9 -14 0 -8 3 -15 6 -14 22 2 33 -9 61 -59 28 -54 29
-59 13 -70 -11 -9 -12 -13 -4 -13 10 0 11 -3 2 -14 -6 -7 -9 -21 -5 -30 4 -9
0 -18 -9 -22 -9 -3 -13 -12 -10 -20 4 -12 8 -11 19 3 7 10 14 27 14 37 0 11 3
16 7 13 3 -4 11 3 18 16 9 18 7 30 -12 66 -43 82 -22 127 71 152 69 19 354 -8
449 -43 21 -7 56 -31 79 -53 23 -22 37 -32 31 -22 -5 10 -7 38 -3 63 4 24 3
44 -1 44 -4 0 -5 9 -2 20 3 11 9 20 12 20 4 0 8 7 8 15 0 8 -1 15 -2 15 -1 0
-16 -20 -34 -45z"/>
<path d="M1680 3129 c0 -5 7 -12 16 -16 13 -5 13 -8 2 -15 -10 -8 -10 -9 2 -5
23 6 24 34 0 40 -11 3 -20 1 -20 -4z"/>
<path d="M477 3096 c-6 -15 29 -53 40 -43 3 4 1 7 -5 7 -6 0 -9 6 -6 13 3 8
-2 19 -9 26 -12 9 -16 8 -20 -3z"/>
<path d="M1764 3099 c-3 -5 2 -12 10 -15 9 -3 16 -16 16 -28 0 -16 2 -18 9 -7
7 11 10 6 13 -19 3 -34 3 -34 14 -10 9 22 7 29 -23 57 -18 17 -35 27 -39 22z"/>
<path d="M201 3090 c-28 -6 -41 -30 -17 -30 9 0 16 5 16 10 0 6 19 10 42 10
23 0 38 3 34 8 -9 9 -43 10 -75 2z"/>
<path d="M648 3080 c20 -17 21 -19 5 -23 -14 -4 -13 -5 5 -6 12 0 22 3 22 7 0
12 -34 42 -46 42 -5 -1 1 -9 14 -20z"/>
<path d="M376 3068 c16 -13 31 -26 32 -30 2 -5 10 -8 17 -8 8 0 17 -9 20 -20
3 -11 11 -20 16 -20 5 0 13 -10 18 -23 5 -13 16 -24 25 -24 11 0 13 5 5 18 -5
10 -14 21 -19 24 -6 4 -8 10 -6 14 3 4 0 13 -6 21 -8 12 -9 11 -4 -5 4 -14 -2
-11 -22 13 -16 17 -34 32 -40 32 -7 0 -12 5 -12 11 0 5 -4 7 -10 4 -5 -3 -10
-1 -10 4 0 6 -7 11 -16 11 -12 0 -8 -7 12 -22z"/>
<path d="M1125 3080 c4 -6 11 -8 16 -4 5 3 19 -5 30 -18 11 -13 18 -18 15 -11
-4 6 -2 14 4 18 5 3 10 2 10 -3 0 -6 7 -13 16 -16 8 -3 12 -2 9 4 -7 12 3 12
30 0 11 -5 14 -9 8 -9 -7 -1 -13 -6 -13 -13 0 -6 7 -4 18 5 24 22 32 21 33 0
0 -16 1 -16 8 1 7 18 9 17 34 -8 15 -15 27 -22 27 -16 0 6 4 9 9 6 5 -3 11 5
13 19 4 21 1 25 -18 25 -13 0 -24 -4 -24 -10 0 -5 7 -7 15 -4 8 4 15 2 15 -4
0 -12 -14 -10 -59 10 -19 9 -45 15 -58 13 -13 -1 -23 1 -23 6 0 5 -7 6 -15 3
-8 -4 -15 -2 -15 2 0 5 -20 10 -45 11 -28 2 -43 -1 -40 -7z"/>
<path d="M305 3070 c3 -6 21 -18 38 -27 18 -9 37 -23 44 -32 8 -11 12 -12 13
-3 0 18 -62 71 -83 72 -10 0 -15 -5 -12 -10z"/>
<path d="M1705 3050 c4 -31 4 -32 -6 -13 -9 17 -20 22 -45 21 -23 -1 -31 -5
-25 -12 5 -6 10 -15 11 -21 2 -5 5 -16 8 -24 3 -7 -1 -17 -9 -22 -19 -12 -2
-12 20 0 13 7 17 5 18 -10 1 -11 -2 -17 -8 -14 -5 4 -9 2 -9 -3 0 -6 7 -12 15
-16 8 -3 15 -17 15 -31 0 -14 4 -25 10 -25 9 0 120 -80 120 -86 0 -5 -93 47
-110 62 -10 8 -21 10 -30 4 -13 -8 -12 -12 4 -27 17 -17 18 -17 11 5 -6 22 -5
21 22 -6 16 -17 41 -34 56 -37 15 -4 30 -11 33 -16 10 -17 24 -9 24 14 0 12
-9 28 -20 35 -11 6 -17 18 -14 25 2 8 -4 13 -16 14 -11 1 -20 -3 -20 -10 0
-15 -25 10 -25 26 0 7 -8 11 -18 11 -9 -1 -17 5 -17 13 0 9 5 11 13 7 9 -6 9
-5 0 8 -7 8 -9 19 -5 23 4 5 1 5 -6 1 -10 -6 -13 -3 -11 10 5 31 -11 64 -27
57 -18 -7 -18 11 1 27 12 10 17 5 32 -27 l17 -38 4 37 c2 21 -2 46 -8 55 -9
15 -10 11 -5 -17z"/>
<path d="M1733 3036 c3 -21 2 -48 -3 -62 -7 -17 -6 -23 3 -21 7 1 11 -7 9 -20
-2 -13 2 -23 8 -23 6 0 8 -6 4 -12 -4 -7 -4 -10 1 -6 4 4 15 2 24 -5 14 -11
14 -10 2 6 -19 24 -5 34 18 13 11 -10 24 -15 29 -12 5 3 15 -6 22 -19 10 -19
16 -22 27 -14 10 9 13 8 13 0 0 -7 5 -9 12 -5 7 4 8 3 4 -4 -10 -17 35 -75 47
-60 6 9 7 5 4 -10 -3 -12 -1 -19 4 -16 15 9 23 -27 11 -46 -9 -16 -3 -25 43
-65 63 -53 71 -49 19 10 -20 22 -33 34 -30 28 4 -7 2 -13 -3 -13 -6 0 -12 17
-12 38 -3 67 -6 84 -20 92 -7 5 -17 6 -23 3 -5 -4 -7 1 -3 10 4 10 -4 26 -21
44 -41 42 -118 106 -128 106 -5 0 -15 -11 -21 -24 -12 -23 -13 -23 -13 -2 0
12 4 23 10 25 5 2 7 13 4 25 -4 13 -10 20 -15 17 -5 -3 -9 6 -9 20 0 14 -5 28
-12 32 -8 5 -9 -3 -5 -30z"/>
<path d="M17 3053 c-4 -3 -2 -12 4 -20 6 -7 8 -13 4 -13 -4 0 -2 -6 4 -14 9
-10 8 -15 -4 -20 -22 -8 -19 -26 5 -26 20 0 23 21 7 48 -5 6 -7 12 -5 13 27 7
38 5 38 -6 0 -8 4 -16 8 -19 4 -2 7 7 6 21 -1 34 -46 58 -67 36z"/>
<path d="M708 3049 c6 -7 12 -19 12 -27 0 -8 -5 -10 -12 -6 -8 4 -10 3 -5 -2
5 -5 14 -9 20 -9 13 0 14 -53 2 -100 -5 -22 -5 -27 3 -20 15 14 26 125 12 125
-5 0 -10 9 -10 19 0 10 -8 22 -17 26 -15 5 -16 4 -5 -6z"/>
<path d="M527 3044 c-3 -4 -2 -14 3 -24 5 -10 7 -20 4 -23 -3 -3 0 -14 7 -25
10 -16 10 -26 1 -47 -8 -18 -9 -32 -2 -43 5 -9 10 -12 11 -7 0 6 3 26 4 45 2
20 5 40 6 45 2 6 -4 24 -14 41 -9 17 -13 34 -10 38 4 3 4 6 1 6 -2 0 -8 -3
-11 -6z"/>
<path d="M780 3015 c0 -32 2 -36 15 -25 8 7 15 18 15 25 0 7 -7 18 -15 25 -13
11 -15 7 -15 -25z"/>
<path d="M1886 3043 c-14 -14 -4 -29 25 -40 17 -7 28 -16 25 -22 -4 -5 -2 -12
4 -16 6 -4 8 -10 5 -15 -3 -5 -1 -11 5 -15 5 -3 10 -1 10 6 0 7 8 6 25 -5 l25
-16 -17 35 c-9 19 -20 35 -25 35 -4 0 -8 11 -8 25 0 17 -4 23 -14 19 -8 -3
-23 -1 -34 5 -11 6 -22 7 -26 4z"/>
<path d="M2627 3025 c10 -42 11 -115 2 -121 -5 -3 -7 -9 -5 -13 3 -4 -1 -8 -9
-8 -8 0 -12 5 -8 10 3 5 -3 6 -14 3 -17 -5 -19 -2 -15 29 5 39 1 43 -19 18
-10 -11 -10 -14 -1 -9 14 9 15 -4 3 -37 -8 -20 -6 -24 7 -24 41 0 43 -2 32
-24 -19 -34 -3 -33 29 3 26 29 29 39 26 80 -2 27 0 50 5 53 13 8 -1 47 -16 41
-7 -3 -15 0 -17 7 -2 7 -2 3 0 -8z"/>
<path d="M640 3031 c0 -6 5 -11 11 -11 6 0 8 -8 4 -19 -3 -10 1 -23 9 -30 8
-7 12 -20 9 -29 -4 -13 -3 -14 5 -3 12 16 4 53 -10 45 -6 -4 -8 1 -4 13 4 12
1 25 -9 33 -10 8 -15 9 -15 1z"/>
<path d="M1400 3026 c0 -20 17 -29 23 -14 3 7 6 3 6 -9 1 -29 11 -53 22 -53 4
0 6 7 2 16 -4 12 -2 15 8 12 8 -3 13 -11 12 -17 -5 -21 15 -11 33 17 15 24 15
25 1 13 -15 -12 -20 -10 -38 13 -12 15 -24 25 -26 22 -3 -3 -14 -1 -24 5 -15
7 -19 6 -19 -5z"/>
<path d="M1830 3011 c0 -7 7 -14 15 -17 8 -4 15 -12 15 -20 0 -19 42 -55 57
-50 7 3 15 1 18 -4 3 -4 -1 -11 -7 -13 -8 -3 -6 -6 5 -6 24 -1 21 11 -8 39
-14 13 -25 20 -25 15 0 -4 -10 7 -22 25 -24 35 -48 50 -48 31z"/>
<path d="M355 2975 c11 -8 37 -32 58 -52 20 -21 37 -31 37 -24 0 11 4 11 18
-2 17 -15 18 -15 19 4 1 11 -3 17 -9 13 -6 -4 -14 0 -19 7 -7 12 -9 12 -9 0 0
-8 -17 4 -38 27 -22 23 -47 42 -58 42 -18 -1 -18 -1 1 -15z"/>
<path d="M804 2961 c3 -14 1 -30 -5 -37 -6 -7 -6 -21 1 -38 5 -15 10 -39 11
-54 0 -24 1 -25 9 -7 12 28 12 57 0 50 -7 -4 -8 7 -4 33 4 24 2 47 -6 58 -10
17 -11 17 -6 -5z"/>
<path d="M1527 2962 c4 -8 2 -13 -3 -9 -6 3 -10 -3 -11 -13 -1 -11 3 -23 9
-26 7 -5 9 -1 5 9 -5 14 0 17 24 17 18 0 28 4 24 10 -4 6 -11 8 -16 4 -5 -3
-8 0 -7 6 2 7 -5 14 -14 15 -11 2 -15 -2 -11 -13z"/>
<path d="M129 2947 c6 -6 21 -11 33 -13 13 -1 23 -3 23 -4 0 -2 10 -4 23 -5
41 -4 8 14 -42 24 -33 6 -45 6 -37 -2z"/>
<path d="M996 2951 c-5 -7 -3 -18 3 -24 6 -6 11 -20 12 -31 0 -20 1 -20 11 2
6 12 15 22 20 22 5 0 6 5 2 11 -4 8 -9 7 -15 -2 -6 -10 -10 -7 -17 10 -6 17
-11 21 -16 12z"/>
<path d="M2690 2950 c-17 -11 -4 -29 20 -27 24 2 24 4 7 22 -8 8 -19 10 -27 5z"/>
<path d="M2431 2905 c-7 -19 -17 -35 -22 -35 -5 0 -9 -4 -9 -10 0 -22 22 -8
33 20 10 27 28 42 27 23 -1 -14 -39 -88 -40 -76 0 6 -9 9 -21 6 -11 -3 -16 -9
-11 -12 5 -3 8 -14 6 -23 -3 -24 11 -31 26 -13 10 12 10 15 -1 15 -12 0 -12 2
0 9 8 5 21 6 30 3 14 -5 14 -4 2 11 -8 10 -11 20 -7 24 3 4 13 -2 21 -13 13
-18 14 -18 15 -1 0 14 5 17 20 12 14 -5 20 -2 20 10 0 10 -5 13 -12 9 -8 -4
-10 -3 -5 2 5 5 12 9 15 9 12 0 32 16 32 25 0 11 -62 -20 -78 -39 -10 -13 -11
-10 -6 20 4 24 1 39 -8 47 -12 9 -17 5 -27 -23z"/>
<path d="M88 2915 c19 -8 42 -25 52 -37 11 -13 19 -18 19 -13 0 24 -59 66 -92
65 -7 -1 3 -7 21 -15z"/>
<path d="M290 2920 c0 -5 7 -10 16 -10 9 0 12 -5 8 -12 -4 -7 -3 -9 1 -5 5 4
15 -3 22 -15 8 -14 12 -17 12 -8 1 21 -10 35 -36 49 -15 8 -23 8 -23 1z"/>
<path d="M686 2921 c-4 -5 -3 -16 0 -24 3 -8 1 -17 -3 -20 -5 -3 -10 4 -10 15
-2 23 -10 34 -19 25 -3 -3 1 -20 10 -38 18 -36 21 -62 5 -39 -8 12 -9 9 -5
-12 4 -16 2 -28 -3 -28 -5 0 -7 -9 -4 -20 3 -11 9 -17 14 -14 15 9 10 -13 -5
-25 -11 -9 -15 -9 -19 1 -2 7 -2 1 0 -14 3 -20 0 -28 -11 -28 -8 0 -18 -5 -22
-11 -9 -15 38 0 49 15 9 14 27 -12 20 -30 -2 -6 0 -15 6 -19 17 -10 13 28 -6
54 -16 23 -15 25 7 43 19 16 21 20 9 35 -12 15 -12 16 2 11 13 -5 16 -2 12 13
-3 10 -9 19 -13 19 -4 0 -7 23 -6 50 2 52 1 56 -8 41z"/>
<path d="M1585 2919 c-4 -6 -13 -8 -21 -5 -7 3 -16 0 -20 -6 -4 -6 -3 -8 3 -5
6 4 14 -1 18 -11 6 -16 7 -16 19 0 7 10 16 15 20 11 4 -4 4 0 0 10 -7 20 -10
21 -19 6z"/>
<path d="M1620 2909 c0 -14 -47 -59 -61 -59 -5 0 -9 5 -9 11 0 5 5 7 12 3 7
-4 8 -3 4 4 -11 18 -26 14 -26 -7 0 -29 27 -33 51 -8 12 12 19 16 15 10 -5 -8
3 -17 21 -25 15 -7 34 -18 41 -25 7 -7 20 -13 29 -13 21 0 -24 36 -52 41 -13
3 -21 13 -22 29 -2 18 -1 20 5 8 5 -12 11 -15 22 -8 12 8 11 12 -8 30 -12 11
-22 15 -22 9z"/>
<path d="M950 2890 c0 -5 5 -10 11 -10 11 0 39 -24 39 -34 0 -10 102 -101 145
-129 32 -21 56 -51 93 -115 108 -189 140 -268 177 -443 l16 -76 52 -8 c29 -4
71 -8 94 -9 23 0 38 -3 34 -6 -5 -3 -7 -12 -6 -21 3 -18 -6 -20 -97 -19 -52 1
-68 -2 -68 -13 0 -11 13 -13 58 -9 79 6 127 17 125 29 -3 13 29 13 46 -1 11
-8 13 -8 7 2 -4 6 -2 12 4 12 6 0 13 -6 16 -13 6 -18 56 -14 68 6 12 18 -8 47
-21 32 -5 -4 -2 -10 5 -12 6 -3 12 -9 12 -14 0 -13 -53 1 -63 18 -4 7 -17 13
-28 13 -11 0 -17 -4 -14 -10 3 -5 -1 -10 -9 -10 -9 0 -16 7 -16 15 0 11 -12
14 -51 13 -28 0 -54 4 -58 9 -3 5 -19 10 -35 11 -44 3 -52 16 -65 97 -17 106
-55 216 -108 313 l-45 82 54 -21 c29 -12 58 -23 65 -26 12 -5 23 -36 23 -68 0
-11 9 -27 20 -35 11 -8 20 -18 20 -23 0 -4 4 -13 10 -20 68 -85 99 -127 94
-127 -4 0 -1 -7 6 -15 7 -8 21 -15 32 -15 26 0 12 20 -15 21 -21 1 -21 1 1 8
24 6 24 6 -11 38 -19 17 -38 29 -41 26 -3 -4 -6 4 -6 17 0 13 -3 20 -6 17 -4
-4 -16 10 -26 30 -11 20 -28 43 -39 52 -12 10 -19 31 -21 59 -2 41 -4 43 -57
70 -31 15 -60 26 -66 25 -5 -2 -28 14 -50 33 -33 30 -35 33 -10 18 23 -13 27
-14 18 -2 -7 8 -10 18 -6 21 3 4 -4 7 -17 7 -30 0 -130 73 -210 154 -64 65
-80 76 -80 56z"/>
<path d="M21 2874 c6 -8 28 -24 48 -35 20 -12 47 -32 61 -44 14 -12 34 -25 45
-28 19 -6 19 -6 1 6 -10 7 -28 22 -39 35 -11 12 -25 22 -30 22 -13 0 -57 36
-51 42 3 3 -7 8 -21 10 -20 4 -23 3 -14 -8z"/>
<path d="M187 2884 c-6 -6 23 -44 35 -44 4 0 2 11 -4 25 -11 25 -20 30 -31 19z"/>
<path d="M858 2854 c-27 -14 -39 -44 -18 -44 5 0 7 7 4 15 -4 9 0 15 8 15 8 0
23 7 34 15 25 19 7 18 -28 -1z"/>
<path d="M2558 2858 c-17 -6 -28 -17 -28 -28 0 -10 -3 -25 -6 -34 -3 -9 -1
-16 5 -16 6 0 11 13 11 29 0 17 4 32 9 36 6 3 8 -4 6 -15 -2 -11 1 -20 6 -20
6 0 9 6 6 13 -2 6 2 20 11 30 17 19 17 19 -20 5z"/>
<path d="M2647 2853 c-4 -3 -7 -13 -7 -20 0 -8 -7 -21 -15 -30 -8 -8 -13 -19
-10 -24 4 -5 -1 -6 -9 -3 -11 4 -16 0 -16 -15 0 -23 -34 -46 -52 -35 -6 4 -8
3 -4 -4 3 -6 2 -13 -4 -17 -5 -3 -10 -1 -10 4 0 15 -36 -21 -36 -36 -1 -13 24
-6 49 15 15 14 17 13 17 -1 0 -10 5 -17 10 -17 9 0 11 4 14 40 1 8 8 14 15 12
7 -1 10 1 7 6 -2 4 13 27 35 52 21 24 39 46 39 49 -1 14 -17 31 -23 24z"/>
<path d="M235 2792 c25 -28 27 -35 15 -43 -11 -7 -8 -8 13 -5 16 3 27 0 27 -6
0 -6 3 -8 7 -5 3 4 -3 18 -15 30 -12 13 -20 26 -16 29 3 3 0 9 -7 14 -8 4 -10
3 -5 -4 11 -18 -4 -14 -28 5 -12 10 -8 3 9 -15z"/>
<path d="M1604 2802 c-16 -11 -23 -49 -9 -49 7 0 10 8 7 20 -4 15 -2 18 8 12
9 -6 11 -4 5 5 -6 10 -4 12 9 7 10 -4 15 -3 11 3 -7 12 -16 12 -31 2z"/>
<path d="M1763 2776 c15 -7 24 -16 20 -21 -5 -4 1 -5 11 -1 19 7 19 6 1 -14
-18 -20 -18 -20 3 -20 24 0 30 -15 10 -24 -7 -3 -2 -3 11 0 14 4 21 2 17 -4
-11 -17 24 -22 52 -7 26 14 26 14 5 15 -18 0 -23 6 -23 26 0 14 -4 23 -9 20
-5 -3 -12 1 -15 10 -3 8 -10 13 -16 9 -5 -3 -23 1 -39 10 -17 8 -36 15 -43 14
-7 0 -1 -6 15 -13z"/>
<path d="M1520 2770 c0 -5 6 -10 13 -10 8 0 9 -2 1 -8 -7 -4 -8 -15 -3 -27 4
-11 8 -16 8 -11 1 5 7 3 15 -3 10 -8 16 -9 21 -1 3 6 11 7 17 4 7 -5 8 -2 3 6
-5 9 -2 10 13 6 11 -4 23 -2 27 4 3 6 11 8 16 4 5 -3 7 -10 4 -15 -4 -5 1 -12
11 -16 15 -6 15 -7 -2 -20 -17 -13 -17 -13 6 -11 20 2 25 -2 26 -21 1 -22 0
-23 -11 -8 -7 9 -19 17 -28 17 -9 0 -19 5 -22 10 -3 6 -11 10 -18 10 -6 0 -2
-6 9 -14 18 -14 18 -15 -6 -25 -22 -8 -22 -10 -4 -10 11 -1 25 4 32 11 6 6 15
8 19 4 4 -4 1 -11 -7 -16 -13 -8 -13 -11 -1 -22 8 -7 11 -8 8 -2 -4 7 0 14 7
17 8 3 17 1 20 -6 3 -9 5 -9 5 1 1 7 14 12 34 11 27 0 29 -2 12 -9 -25 -11 2
-12 29 -1 18 7 18 8 2 14 -10 4 -16 13 -13 21 3 7 0 13 -6 12 -7 0 -13 3 -14
8 -1 5 -13 16 -27 26 -15 9 -23 20 -19 24 5 4 -1 6 -12 4 -11 -1 -19 2 -18 7
1 6 -9 15 -22 21 -19 9 -22 9 -18 -2 3 -10 -3 -14 -20 -14 -14 0 -27 -5 -29
-12 -5 -14 -38 -3 -38 13 0 6 7 9 15 5 8 -3 15 -1 15 4 0 6 -7 10 -15 10 -8 0
-15 5 -15 10 0 6 -4 10 -10 10 -5 0 -10 -4 -10 -10z"/>
<path d="M2428 2740 c-7 -11 -18 -20 -25 -20 -6 0 -14 -4 -17 -9 -4 -5 3 -7
14 -4 15 4 19 2 14 -10 -4 -11 0 -14 13 -12 10 2 20 4 23 4 3 1 -1 5 -9 10
-12 8 -13 14 -3 35 14 31 7 34 -10 6z"/>
<path d="M150 2745 c0 -9 73 -70 81 -68 9 3 49 -46 49 -60 0 -5 -7 -4 -15 3
-10 9 -15 9 -15 1 0 -10 14 -15 24 -8 7 3 56 -45 56 -56 0 -5 -6 -4 -13 2 -8
6 -17 8 -20 5 -3 -3 -20 10 -38 30 -17 20 -34 34 -37 31 -3 -3 -14 2 -24 12
-10 9 -18 12 -18 7 0 -5 29 -37 64 -71 68 -65 84 -100 66 -148 -6 -15 -9 -30
-6 -32 9 -10 46 23 46 42 0 17 2 18 11 5 8 -11 9 -9 3 10 -4 14 -7 35 -6 48 1
12 -3 22 -9 22 -7 0 -10 14 -7 35 2 19 2 32 -1 30 -9 -10 -31 34 -25 52 3 10
-2 7 -10 -7 -9 -15 -15 -19 -16 -10 0 30 -140 155 -140 125z"/>
<path d="M50 2724 c0 -7 5 -16 10 -19 6 -4 7 -11 4 -17 -4 -5 4 -3 17 6 23 15
25 14 36 -12 7 -15 21 -32 31 -38 15 -10 18 -8 18 7 0 9 -3 16 -7 13 -4 -2
-10 8 -14 24 -4 15 -10 21 -12 14 -4 -10 -9 -8 -19 6 -16 24 -64 36 -64 16z"/>
<path d="M382 2714 c-1 -14 7 -37 18 -51 18 -23 20 -24 20 -6 0 11 9 32 21 47
11 14 16 26 10 26 -5 0 -19 -12 -30 -26 l-21 -27 0 32 c0 37 -15 42 -18 5z"/>
<path d="M264 2710 c2 -14 5 -28 5 -32 1 -4 8 -5 16 -2 8 4 12 11 9 16 -4 6 0
15 7 20 11 8 11 9 -2 5 -9 -3 -22 0 -28 6 -9 9 -10 5 -7 -13z"/>
<path d="M1310 2696 c0 -1 5 -17 11 -35 9 -25 16 -31 37 -30 24 2 24 2 5 6
-15 3 -23 12 -23 24 0 11 4 17 10 14 6 -4 7 1 3 11 -4 11 -8 13 -11 6 -2 -7
-8 -12 -13 -12 -6 0 -7 5 -4 10 3 6 1 10 -4 10 -6 0 -11 -2 -11 -4z"/>
<path d="M1510 2678 c-11 -12 -17 -24 -14 -27 3 -3 10 2 15 12 6 9 19 17 30
17 11 0 17 5 14 10 -10 15 -22 12 -45 -12z"/>
<path d="M1115 2680 c-12 -19 13 -37 28 -21 8 10 8 12 0 7 -6 -3 -14 -2 -18 4
-3 5 1 10 9 10 24 0 27 -16 7 -39 -11 -12 -22 -22 -25 -22 -19 2 -26 0 -26 -9
0 -17 39 -11 59 9 11 11 22 16 26 13 4 -4 5 7 3 23 -2 24 -8 31 -30 33 -14 2
-29 -2 -33 -8z"/>
<path d="M1373 2670 c-8 -12 -4 -15 21 -16 17 -1 25 1 18 3 -10 4 -8 9 5 19
17 12 16 13 -8 12 -15 -1 -31 -9 -36 -18z"/>
<path d="M2653 2673 c-16 -6 -17 -33 -1 -33 9 0 9 -3 0 -12 -16 -16 -15 -29 2
-22 10 4 14 18 13 40 -1 19 -2 34 -2 33 0 0 -6 -3 -12 -6z"/>
<path d="M1 2649 c-1 -17 10 -35 31 -55 18 -16 26 -21 19 -11 -7 9 -10 17 -5
17 5 0 -1 7 -13 15 -12 8 -24 25 -26 38 -4 20 -4 20 -6 -4z"/>
<path d="M23 2653 c0 -9 9 -18 19 -21 10 -2 18 -9 18 -15 0 -6 3 -7 6 -4 4 4
1 13 -6 22 -10 12 -9 15 6 15 15 0 16 2 5 9 -10 7 -19 4 -29 -7 -7 -9 -11 -12
-8 -5 4 6 3 14 -2 17 -5 3 -9 -2 -9 -11z"/>
<path d="M1550 2650 c0 -11 5 -20 11 -20 5 0 7 5 4 10 -4 6 6 10 22 11 25 0
26 1 8 9 -33 14 -45 11 -45 -10z"/>
<path d="M376 2652 c2 -3 -3 -10 -12 -16 -10 -8 -13 -18 -8 -31 7 -18 8 -18
15 1 6 18 8 17 18 -6 11 -23 11 -23 6 10 -3 19 -9 37 -14 41 -4 4 -6 4 -5 1z"/>
<path d="M116 2596 c22 -24 49 -48 61 -54 12 -6 -3 13 -35 43 -31 30 -58 55
-61 55 -2 0 14 -20 35 -44z"/>
<path d="M1393 2625 c0 -8 3 -13 5 -10 3 3 12 -4 19 -15 8 -11 18 -18 23 -15
5 3 7 -6 4 -19 -4 -26 10 -44 21 -26 3 5 2 10 -3 10 -5 0 -7 11 -4 25 3 17 0
25 -10 25 -7 0 -20 9 -28 20 -17 24 -27 26 -27 5z"/>
<path d="M1910 2633 c-14 -2 -39 -11 -57 -19 -17 -8 -37 -14 -45 -14 -7 -1
-29 -15 -48 -32 -19 -17 -28 -28 -20 -24 8 4 5 -1 -7 -10 -25 -18 -31 -39 -10
-31 6 2 22 -4 34 -15 12 -11 42 -23 66 -25 53 -6 91 11 159 74 40 39 46 48 36
61 -11 13 -72 44 -80 41 -2 -1 -14 -4 -28 -6z m59 -35 c8 -19 3 -30 -29 -62
-32 -32 -46 -40 -88 -44 -49 -4 -92 9 -92 30 0 10 46 58 56 58 3 0 16 -12 30
-27 21 -24 25 -25 21 -8 -3 11 -8 28 -12 37 -5 13 1 19 27 27 56 16 78 13 87
-11z"/>
<path d="M962 2582 c-20 -24 -48 -49 -62 -54 -14 -6 -20 -12 -12 -15 6 -3 10
-9 6 -14 -3 -5 0 -9 5 -9 6 0 11 4 11 9 0 9 38 24 53 22 5 -1 6 3 3 8 -8 12
24 81 37 81 5 0 4 -7 -3 -15 -6 -8 -9 -19 -5 -25 5 -8 11 -3 19 12 7 13 24 26
41 29 21 5 24 7 10 9 -11 1 -30 3 -43 4 -17 2 -33 -9 -60 -42z"/>
<path d="M1494 2608 c-4 -7 -3 -8 4 -4 8 5 11 1 9 -11 -1 -10 3 -19 8 -19 6
-1 9 2 8 7 -4 13 15 11 23 -3 9 -14 -25 -40 -40 -31 -6 3 -8 3 -4 -2 4 -4 1
-17 -7 -27 -7 -11 -11 -27 -8 -34 8 -22 32 3 26 26 -4 13 0 20 10 20 8 0 14
-7 13 -16 0 -11 7 -18 21 -19 12 -1 21 3 20 9 -1 6 12 11 30 11 17 0 35 3 39
7 3 4 -3 6 -15 3 -11 -2 -21 0 -21 5 0 9 -39 2 -56 -11 -16 -13 -13 23 3 40
11 11 12 16 2 21 -6 4 -9 12 -5 18 4 6 -2 8 -14 5 -11 -3 -20 0 -20 6 0 14
-17 14 -26 -1z"/>
<path d="M2356 2611 c-14 -5 -16 -10 -8 -15 7 -4 17 -4 24 0 6 4 8 3 5 -3 -9
-14 29 -47 44 -37 9 5 11 1 7 -14 -3 -12 -1 -23 4 -24 7 -3 7 -12 -1 -27 -7
-12 -10 -35 -6 -52 6 -25 4 -28 -11 -22 -14 5 -16 3 -10 -12 4 -11 2 -22 -6
-27 -9 -5 -7 -8 8 -8 12 0 26 -6 32 -13 13 -15 -12 -47 -71 -91 -21 -16 -35
-31 -32 -34 5 -5 67 35 101 66 10 9 32 27 48 40 16 12 25 23 20 23 -5 1 -19 3
-32 4 -31 3 -37 11 -26 37 20 47 4 181 -20 176 -8 -2 -22 7 -32 19 -14 15 -25
19 -38 14z"/>
<path d="M2581 2612 c-1 -7 -14 -32 -29 -55 -36 -53 -44 -67 -39 -67 10 0 78
113 73 123 -3 8 -5 8 -5 -1z"/>
<path d="M80 2602 c0 -8 -5 -10 -12 -6 -6 4 1 -10 17 -30 29 -39 99 -89 122
-89 7 0 13 -4 13 -9 0 -4 3 -7 8 -6 4 1 17 -3 30 -10 12 -7 22 -11 23 -10 6
23 6 37 -1 33 -11 -7 -111 36 -105 45 3 5 -11 14 -30 20 -19 6 -34 14 -32 18
1 4 -6 18 -16 32 -9 13 -17 19 -17 12z"/>
<path d="M2940 2600 c-8 -5 -23 -7 -32 -4 -10 3 -26 -4 -37 -15 -12 -12 -28
-21 -36 -21 -8 0 -22 -14 -31 -32 l-16 -32 43 38 c24 20 55 39 69 42 14 3 35
7 48 10 12 2 22 9 22 14 0 13 -11 12 -30 0z"/>
<path d="M2650 2590 c-13 -8 -12 -10 3 -10 10 0 15 -5 12 -10 -3 -6 0 -13 9
-16 8 -3 12 -12 9 -20 -3 -9 2 -14 14 -14 10 0 23 -10 28 -22 6 -12 33 -34 60
-49 54 -30 75 -35 75 -19 0 6 -6 10 -13 10 -7 0 -26 12 -42 28 -16 15 -32 27
-35 27 -13 0 -70 50 -70 61 0 6 -7 15 -16 18 -8 3 -12 10 -9 16 8 13 -5 13
-25 0z"/>
<path d="M1184 2569 c-3 -6 -17 -8 -30 -5 l-25 7 22 -22 c11 -11 21 -19 22
-17 1 2 8 13 15 26 12 22 9 32 -4 11z"/>
<path d="M2029 2573 c0 -5 -2 -16 -4 -26 -3 -15 -1 -16 11 -6 11 9 14 8 14 -5
0 -9 5 -16 11 -16 6 0 8 -9 4 -22 -7 -23 -7 -23 10 -3 9 11 14 15 11 8 -4 -6
-2 -14 4 -18 6 -3 10 4 10 17 1 22 2 22 25 -7 14 -16 25 -25 25 -19 0 5 -22
31 -49 57 -46 44 -70 57 -72 40z"/>
<path d="M1070 2544 c-82 -29 -119 -48 -130 -69 -25 -48 26 -62 103 -30 18 8
23 35 7 51 -5 5 -6 15 -1 22 6 10 13 10 35 -2 33 -17 65 -10 62 12 -3 17 -46
26 -76 16z m-66 -63 c3 -5 0 -13 -7 -18 -11 -8 -20 -9 -44 -4 -9 2 27 31 38
31 4 0 10 -4 13 -9z"/>
<path d="M4 2496 c0 -14 5 -26 11 -26 5 0 4 -4 -3 -9 -10 -6 -6 -11 17 -19 17
-6 31 -9 31 -6 0 2 14 -3 31 -11 52 -27 42 -10 -11 19 -27 15 -50 31 -50 35 0
4 -6 15 -13 25 -12 16 -13 16 -13 -8z"/>
<path d="M1686 2478 c7 -12 -25 -60 -35 -54 -15 9 2 -47 18 -63 22 -21 56 -27
48 -8 -4 10 3 14 24 15 16 0 29 -4 29 -9 0 -5 6 -8 13 -6 6 1 11 -4 9 -11 -1
-8 2 -11 7 -7 6 3 8 12 4 20 -3 9 0 22 7 30 13 15 14 14 -35 30 -22 7 -18 -4
5 -13 14 -5 17 -11 10 -22 -8 -12 -12 -12 -18 -3 -8 12 -21 12 -68 -2 -12 -4
-25 -2 -28 4 -4 6 -1 11 6 11 10 0 11 2 0 8 -10 7 -8 14 8 34 23 31 26 55 5
55 -8 0 -12 -4 -9 -9z"/>
<path d="M1960 2460 c-8 -5 -18 -6 -22 -4 -4 3 -8 0 -8 -5 0 -6 -3 -10 -7 -10
-22 4 -43 -3 -57 -17 -20 -20 -21 -35 -1 -28 8 4 12 10 9 15 -3 5 3 6 12 2 12
-4 15 -3 10 5 -5 8 -1 10 10 5 13 -5 15 -3 9 7 -5 9 -4 11 4 6 6 -4 17 -3 24
2 17 13 42 7 68 -17 24 -22 39 -19 38 7 0 14 -2 13 -9 -3 -9 -22 -10 -21 -14
12 -2 13 -6 26 -11 30 -4 5 -4 -3 0 -16 5 -16 4 -21 -4 -17 -6 4 -11 15 -12
24 0 12 -2 13 -6 3 -4 -9 -8 -10 -12 -3 -4 7 -12 8 -21 2z"/>
<path d="M1905 2409 c-27 -15 -50 -32 -50 -36 0 -4 -3 -7 -7 -6 -4 2 -5 -4 -2
-12 4 -8 -1 -17 -10 -21 -9 -3 -16 -10 -16 -15 0 -6 9 -5 21 1 11 6 33 9 49 5
15 -3 31 -2 34 3 3 5 0 10 -7 9 -34 -1 -57 4 -57 12 0 5 11 8 25 5 14 -2 26 0
26 6 1 5 3 15 4 20 1 6 3 15 4 20 0 6 10 10 20 10 11 0 22 4 26 9 12 21 -12
16 -60 -10z"/>
<path d="M27 2413 c3 -7 9 -10 14 -7 5 3 23 -9 40 -27 16 -17 32 -30 34 -27 8
8 -62 75 -78 75 -8 0 -13 -6 -10 -14z"/>
<path d="M2855 2411 c-3 -6 -1 -11 5 -11 6 0 9 -4 5 -9 -3 -5 4 -12 15 -16 11
-3 19 -9 19 -13 -3 -20 3 -32 15 -32 12 0 13 6 4 31 -6 17 -16 28 -23 25 -7
-2 -12 2 -11 11 1 19 -19 29 -29 14z"/>
<path d="M2250 2404 c0 -2 12 -9 26 -14 29 -11 97 -3 89 10 -3 5 -18 5 -34 0
-16 -4 -31 -6 -34 -4 -6 7 -47 14 -47 8z"/>
<path d="M1981 2363 c-7 -12 -10 -14 -11 -4 0 11 -3 11 -15 1 -8 -6 -13 -16
-12 -22 1 -5 -7 -15 -18 -21 -11 -7 -23 -16 -27 -21 -4 -6 -12 -5 -21 2 -14
12 -27 7 -27 -10 0 -5 4 -7 9 -4 18 11 20 -38 3 -58 -16 -20 -16 -20 2 -6 18
14 18 14 6 -7 -15 -23 -30 -22 -30 2 0 8 -7 11 -20 8 -11 -3 -20 -12 -20 -20
0 -12 -3 -13 -13 -4 -8 6 -16 8 -20 5 -8 -9 4 -35 13 -29 5 3 12 1 15 -5 5 -8
11 -8 20 0 7 6 23 13 35 15 13 2 23 6 24 7 1 2 9 12 19 24 18 22 13 59 -7 47
-6 -3 -2 3 8 15 19 22 43 31 31 12 -3 -5 -2 -10 4 -10 5 0 13 5 16 10 3 6 1
10 -6 10 -7 0 1 11 17 25 16 14 32 25 35 25 3 0 6 7 6 15 0 19 -4 19 -16 -2z"/>
<path d="M1634 2341 c4 -6 2 -19 -6 -28 -15 -18 -16 -17 30 -61 23 -23 32 -39
27 -50 -4 -12 -3 -14 5 -6 7 7 8 19 1 37 -9 23 -7 29 19 47 17 12 34 18 40 15
5 -3 10 -1 10 4 0 6 -4 11 -10 11 -5 0 -10 6 -10 14 0 10 -7 12 -22 8 -18 -4
-19 -6 -5 -11 11 -4 13 -11 8 -20 -7 -10 -12 -8 -24 9 -14 20 -36 12 -23 -9 3
-5 -1 -14 -8 -20 -18 -15 -27 -2 -21 32 3 14 0 29 -6 33 -8 4 -9 3 -5 -5z"/>
<path d="M503 2303 c-3 -7 -11 -13 -17 -13 -29 0 -138 -42 -157 -61 -12 -12
-28 -18 -44 -15 -23 4 -36 -8 -16 -16 5 -1 11 -12 13 -22 2 -14 -3 -19 -19
-21 -13 -1 -23 2 -23 7 0 4 5 8 10 8 6 0 10 5 10 12 0 6 -8 3 -20 -7 -11 -10
-17 -23 -13 -29 4 -6 -1 -5 -10 3 -9 7 -14 17 -11 22 11 18 -17 9 -33 -11 -10
-11 -22 -20 -28 -20 -6 0 -11 -8 -12 -18 -1 -17 2 -17 32 -8 22 7 31 14 25 20
-6 6 -10 14 -10 19 0 5 10 -3 21 -17 12 -15 25 -24 28 -19 9 11 79 43 96 43 8
0 15 4 15 10 0 5 -6 7 -14 4 -10 -4 -13 0 -10 13 6 21 61 47 70 32 3 -5 -2 -9
-10 -9 -9 0 -16 -4 -16 -10 0 -15 11 -12 55 15 22 13 52 30 68 36 15 6 27 15
27 19 0 4 11 11 25 14 14 4 25 12 25 19 0 16 -51 16 -57 0z m-73 -53 c0 -5 -7
-10 -16 -10 -9 0 -12 -5 -8 -11 4 -7 1 -10 -6 -7 -21 7 -23 26 -3 31 30 8 33
7 33 -3z"/>
<path d="M93 2288 c-45 -73 -67 -178 -64 -300 2 -55 -1 -78 -9 -78 -7 0 -10 7
-6 15 3 8 1 15 -4 15 -30 0 32 -126 91 -184 49 -48 51 -32 4 25 -54 64 -58 75
-60 189 -3 123 16 228 51 282 13 21 24 40 24 43 0 10 -19 5 -27 -7z"/>
<path d="M2759 2283 c-1 -5 -1 -11 -1 -14 1 -3 -10 -12 -23 -19 -14 -7 -25
-17 -25 -22 0 -5 8 -4 18 1 23 12 47 41 36 42 -5 0 0 4 11 9 17 7 17 9 3 9
-10 1 -19 -2 -19 -6z"/>
<path d="M2910 2284 c0 -12 29 -34 45 -34 13 0 14 4 5 20 -9 18 -50 29 -50 14z"/>
<path d="M607 2256 c-4 -9 -16 -12 -34 -9 -22 4 -25 2 -13 -6 19 -13 50 -14
50 -2 0 5 8 11 18 13 15 3 16 4 0 10 -9 4 -18 1 -21 -6z"/>
<path d="M1976 2259 c2 -4 -4 -13 -13 -20 -15 -12 -16 -12 -9 6 7 20 7 20 -13
0 -61 -59 -70 -69 -66 -74 3 -2 18 8 33 22 32 31 58 36 48 10 -6 -15 -4 -15
14 2 25 22 25 26 3 19 -19 -5 -20 -6 34 32 12 8 10 10 -10 10 -14 0 -24 -3
-21 -7z"/>
<path d="M2977 2245 c-4 -8 -21 -18 -39 -24 -32 -9 -32 -9 -5 -10 17 -1 27 -7
27 -16 0 -9 6 -12 17 -8 11 4 14 3 9 -5 -4 -7 -2 -12 4 -12 16 0 8 34 -10 42
-12 5 -12 7 3 7 10 1 17 9 17 21 0 23 -15 27 -23 5z"/>
<path d="M388 2164 c-93 -61 -154 -121 -146 -144 2 -6 17 2 33 19 34 35 47 39
39 14 -5 -15 -4 -16 5 -3 6 8 11 26 11 39 0 20 4 22 23 16 52 -16 66 -16 95
-1 34 17 50 52 33 69 -24 24 -12 40 24 34 22 -4 35 -2 35 5 0 6 -3 9 -6 5 -3
-3 -16 -2 -28 2 -17 7 -41 -5 -118 -55z m82 -15 c0 -16 -5 -20 -20 -16 -11 3
-20 1 -20 -4 0 -5 -7 -9 -16 -9 -8 0 -12 4 -9 10 3 6 -1 7 -9 4 -25 -9 -19 10
7 22 39 20 67 17 67 -7z"/>
<path d="M1560 2222 c0 -11 37 -32 44 -25 15 15 4 33 -19 33 -14 0 -25 -3 -25
-8z"/>
<path d="M2490 2211 c0 -7 -4 -10 -9 -7 -5 4 -32 -5 -59 -19 -27 -14 -53 -25
-57 -25 -4 0 -16 -11 -27 -25 -18 -23 -70 -57 -84 -54 -3 0 -8 -2 -12 -5 -3
-3 3 -6 12 -6 12 0 16 -5 12 -16 -3 -9 -6 -18 -6 -20 0 -3 -5 -2 -12 2 -7 4
-8 3 -4 -4 4 -8 -3 -16 -20 -22 -15 -6 -24 -13 -21 -16 10 -11 86 36 81 50 -3
7 6 26 19 40 l25 26 -3 -29 c-2 -36 -30 -81 -49 -81 -9 0 -12 -7 -9 -20 3 -11
9 -17 14 -14 5 3 7 9 5 13 -6 8 38 51 52 51 4 0 23 14 42 30 28 25 30 29 10
19 -14 -7 -27 -16 -30 -20 -12 -17 -32 9 -25 31 5 16 9 19 15 10 6 -10 10 -9
16 2 5 7 21 19 37 25 16 8 27 20 27 33 0 31 18 24 25 -10 4 -16 10 -32 15 -35
10 -6 35 93 26 102 -3 4 -6 1 -6 -6z"/>
<path d="M2175 2186 c-10 -15 -15 -29 -12 -32 3 -3 10 4 16 15 11 20 38 19 52
-2 3 -5 9 0 11 11 5 16 2 20 -15 16 -12 -2 -24 1 -28 8 -4 7 -13 1 -24 -16z"/>
<path d="M2693 2188 c-12 -6 -24 -17 -27 -24 -4 -11 -1 -12 12 -5 53 29 65 53
15 29z"/>
<path d="M635 2139 c-7 -55 -21 -83 -36 -74 -4 3 -6 -4 -4 -15 3 -18 -5 -24
-26 -22 -4 1 -5 -9 -2 -21 4 -18 3 -19 -6 -7 -9 12 -11 11 -11 -10 0 -23 1
-23 34 12 68 72 96 141 71 175 -11 15 -14 10 -20 -38z"/>
<path d="M1691 2152 c-1 -8 -10 -11 -26 -8 -14 3 -25 1 -25 -4 0 -15 18 -21
23 -8 4 10 6 10 6 1 1 -7 9 -13 20 -13 10 0 24 -7 31 -15 7 -9 19 -14 26 -11
6 2 15 2 18 -2 4 -3 12 -7 19 -8 20 -3 15 34 -6 40 -14 3 -16 1 -7 -9 8 -10 5
-12 -15 -12 -14 0 -25 3 -25 8 0 5 5 9 11 9 5 0 7 5 3 11 -3 6 -15 9 -25 6
-11 -3 -20 1 -22 12 -3 9 -5 10 -6 3z"/>
<path d="M1570 2140 c10 -6 11 -10 3 -10 -7 0 -13 -6 -13 -14 0 -18 46 -15 63
4 9 10 7 10 -7 0 -18 -13 -19 -13 -14 2 4 10 1 19 -8 22 -25 10 -41 7 -24 -4z"/>
<path d="M2623 2143 c-7 -2 -13 -9 -13 -15 0 -6 -17 -32 -37 -57 -28 -33 -31
-40 -13 -27 27 21 94 106 82 105 -4 0 -13 -3 -19 -6z"/>
<path d="M2685 2118 c-24 -6 -74 -51 -75 -68 0 -3 17 -5 38 -5 81 2 96 5 86
15 -6 6 -23 6 -47 -2 -79 -24 -52 17 33 50 45 17 49 21 24 20 -17 -1 -43 -5
-59 -10z"/>
<path d="M1827 2102 c-10 -10 -14 -22 -10 -25 5 -6 -9 -11 -27 -9 -3 0 -7 -8
-7 -19 -2 -16 5 -13 37 17 22 21 37 41 34 46 -7 11 -9 11 -27 -10z"/>
<path d="M2432 2107 c-7 -8 -7 -18 -2 -27 13 -20 12 -33 0 -25 -6 4 -9 1 -8
-7 2 -8 -5 -12 -19 -11 -27 3 -29 -3 -8 -23 21 -22 19 -37 -5 -31 -11 3 -18 2
-15 -3 3 -4 14 -10 25 -13 11 -3 18 -1 14 4 -3 5 0 9 7 9 8 0 8 4 1 13 -6 7
-7 18 -3 25 6 9 12 8 25 -7 14 -16 22 -17 45 -8 22 8 27 16 25 36 -1 14 4 34
13 43 9 10 13 21 10 25 -4 3 -7 1 -7 -5 0 -7 -5 -12 -11 -12 -5 0 -7 5 -3 12
4 6 3 8 -4 4 -5 -3 -12 -3 -15 1 -2 5 -2 2 -1 -4 5 -19 -7 -44 -17 -37 -5 3
-9 0 -9 -5 0 -6 -5 -11 -11 -11 -6 0 -8 7 -5 16 3 8 2 12 -4 9 -6 -3 -10 1
-10 9 0 9 5 16 10 16 6 0 10 5 10 10 0 14 -16 12 -28 -3z"/>
<path d="M143 2093 c-13 -8 -23 -22 -23 -29 0 -11 5 -10 18 4 10 9 27 22 38
29 14 9 15 12 4 12 -8 0 -25 -7 -37 -16z"/>
<path d="M1824 2048 c-32 -35 -55 -54 -51 -43 6 17 4 17 -13 -4 -18 -21 -25
-20 -21 2 0 4 -4 7 -10 7 -6 0 -9 -6 -6 -14 3 -8 0 -19 -7 -25 -14 -12 -49 -4
-41 9 9 15 -20 18 -33 4 -11 -12 -8 -15 17 -20 17 -4 28 -10 25 -15 -3 -5 0
-9 6 -9 6 0 8 -4 5 -10 -3 -5 -4 -10 -2 -10 3 0 14 15 26 33 11 17 21 26 21
18 0 -11 4 -10 16 5 15 19 15 18 11 -3 -3 -12 0 -24 7 -27 8 -3 7 -5 -1 -5 -7
-1 -18 -11 -24 -23 -11 -22 -10 -22 12 2 13 13 23 28 22 32 -2 5 3 8 10 8 9 0
8 3 -2 9 -17 11 -5 32 14 25 7 -3 23 0 35 6 16 9 25 8 38 -2 15 -12 16 -11 3
5 -10 12 -23 16 -43 13 -17 -3 -28 0 -26 6 2 5 7 9 12 8 4 -1 16 9 27 21 18
21 19 22 19 2 0 -11 6 -26 14 -32 11 -9 16 -5 25 20 14 42 14 42 -8 36 -14 -3
-17 0 -14 14 3 11 3 19 0 19 -3 0 -31 -28 -63 -62z"/>
<path d="M2976 2094 c-3 -9 -4 -20 0 -25 5 -9 -50 -4 -90 8 -13 4 -16 2 -11
-8 6 -9 2 -11 -13 -7 -12 4 -24 2 -27 -2 -3 -4 23 -7 57 -7 41 1 63 -2 66 -11
2 -6 8 -12 13 -12 6 0 7 5 4 10 -3 6 1 10 9 10 19 0 21 26 4 33 -10 4 -10 6 0
6 6 1 12 6 12 11 0 16 -17 12 -24 -6z"/>
<path d="M2160 2065 c-6 -8 -9 -19 -5 -26 5 -7 1 -9 -11 -7 -11 2 -18 10 -16
18 3 11 0 11 -12 0 -17 -14 -22 -65 -6 -55 6 4 8 11 5 16 -4 5 -2 9 3 9 6 0
12 -7 16 -15 7 -19 42 -7 80 28 23 22 24 26 11 37 -12 10 -19 10 -27 2 -15
-15 -32 -16 -23 -2 9 15 -1 12 -15 -5z"/>
<path d="M2043 2034 c-3 -8 5 -25 20 -38 l25 -23 0 36 c1 30 -3 37 -19 38 -11
1 -23 -5 -26 -13z"/>
<path d="M2990 2030 c0 -5 -7 -10 -15 -10 -8 0 -15 -5 -15 -10 0 -6 -15 -4
-37 5 -20 8 -38 13 -40 11 -3 -2 5 -7 18 -11 15 -5 18 -10 9 -15 -7 -4 0 -7
17 -7 15 0 39 -4 53 -8 24 -7 25 -7 5 9 -12 10 -14 14 -5 11 11 -4 16 1 17 15
1 11 0 20 -3 20 -2 0 -4 -4 -4 -10z"/>
<path d="M1910 2007 c-45 -72 -59 -109 -47 -122 7 -7 15 -11 19 -8 4 2 5 -4 1
-13 -4 -12 -3 -15 5 -10 7 4 11 22 9 41 -1 24 -5 31 -14 24 -8 -7 -10 -5 -6
10 3 12 9 19 13 16 4 -3 19 10 33 28 19 25 22 35 12 43 -9 9 -15 6 -25 -9z"/>
<path d="M2766 2014 c33 -17 60 -18 67 -1 3 8 -10 12 -44 13 -47 1 -48 1 -23
-12z"/>
<path d="M901 1993 c-7 -16 -11 -29 -9 -29 1 -1 -4 -10 -13 -20 -21 -24 -36
-70 -20 -59 7 4 24 32 39 63 14 32 28 60 30 65 2 4 0 7 -6 7 -5 0 -14 -12 -21
-27z"/>
<path d="M2312 1990 c-24 -22 -29 -40 -11 -40 5 0 8 4 5 9 -11 17 26 21 42 4
16 -16 16 -16 0 -10 -10 3 -20 2 -23 -2 -2 -5 6 -11 20 -13 14 -3 22 -1 18 5
-3 5 4 7 18 3 22 -6 23 -5 3 5 -11 6 -27 21 -35 35 l-15 24 -22 -20z"/>
<path d="M111 1950 c-16 -75 -13 -121 10 -159 11 -18 23 -31 26 -27 3 3 0 13
-8 22 -10 13 -13 43 -12 116 2 54 1 98 -1 98 -3 0 -9 -23 -15 -50z"/>
<path d="M1564 1982 c-17 -9 -29 -22 -27 -28 2 -6 -13 -28 -34 -49 -24 -25
-31 -36 -18 -31 11 5 27 10 36 13 10 3 15 12 12 23 -4 15 -1 18 19 13 19 -4
20 -3 8 7 -12 9 -11 11 10 9 39 -2 46 1 30 11 -13 9 -13 10 0 10 13 0 13 1 0
10 -13 9 -13 11 0 20 25 16 -3 10 -36 -8z"/>
<path d="M1953 1984 c3 -4 -1 -20 -9 -35 -19 -37 3 -36 27 1 18 28 16 40 -8
40 -9 0 -14 -3 -10 -6z"/>
<path d="M2192 1973 c-33 -12 -40 -18 -32 -28 13 -15 3 -24 -22 -20 -10 2 -18
-1 -18 -6 0 -5 5 -9 11 -9 5 0 7 -4 4 -10 -3 -5 0 -10 9 -10 8 0 20 -2 28 -3
7 -2 10 -2 5 0 -4 3 -4 10 -1 15 4 7 2 8 -4 4 -7 -4 -12 -2 -12 4 0 11 7 14
50 24 38 9 51 21 44 39 -7 20 -6 20 -62 0z"/>
<path d="M2896 1972 c18 -11 35 -25 38 -31 4 -5 13 -8 20 -5 8 3 17 1 21 -5 3
-6 0 -9 -8 -5 -8 3 -18 1 -22 -5 -10 -16 -25 -13 -25 5 0 11 -5 14 -17 9 -10
-4 -23 -8 -30 -8 -18 -1 -4 -17 15 -17 15 0 15 -1 0 -16 -11 -11 -34 -16 -70
-16 -38 0 -47 -3 -32 -9 30 -11 44 -33 15 -24 -16 5 -20 3 -15 -9 4 -11 -2
-17 -23 -21 -55 -13 -59 -15 -43 -25 11 -7 4 -10 -25 -11 -22 0 -34 -3 -27 -6
21 -8 13 -21 -20 -32 -21 -8 -35 -8 -42 -1 -5 5 -15 10 -20 10 -6 0 -4 -5 4
-10 12 -8 13 -11 1 -19 -9 -6 -10 -10 -1 -13 7 -2 1 -17 -17 -39 -15 -20 -34
-34 -42 -31 -8 3 -11 0 -7 -7 5 -7 -1 -10 -16 -8 -18 1 -23 -3 -22 -20 0 -16
-9 -27 -31 -37 -31 -15 -75 -56 -60 -56 4 0 2 -7 -5 -15 -14 -17 -35 -20 -24
-4 8 14 -2 8 -68 -40 -27 -19 -48 -41 -48 -49 0 -20 -82 -123 -180 -227 -145
-154 -178 -195 -161 -195 12 0 180 172 249 255 27 33 79 88 115 122 36 35 61
65 57 68 -5 3 -17 -6 -26 -20 -9 -14 -26 -31 -38 -37 -19 -10 -18 -8 4 18 44
50 91 91 77 67 -4 -6 -4 -14 1 -17 4 -2 29 19 55 49 27 29 83 77 125 106 42
30 100 78 128 109 29 30 74 66 100 79 27 14 53 30 57 38 10 16 110 67 150 77
18 4 27 13 27 25 0 11 3 26 6 34 3 9 -3 16 -16 20 -16 4 -20 2 -16 -9 7 -18
-4 -18 -29 0 -11 7 -31 17 -45 20 -22 7 -21 5 6 -12z"/>
<path d="M1813 1966 c-3 -5 -1 -6 5 -2 6 3 13 2 17 -4 3 -5 -1 -10 -9 -10 -9
0 -16 -9 -16 -20 0 -11 5 -20 11 -20 5 0 7 5 3 12 -5 8 -2 9 10 5 10 -4 15 -3
11 3 -3 6 -1 10 4 10 6 0 11 9 11 19 0 14 -6 19 -21 18 -11 -1 -23 -6 -26 -11z"/>
<path d="M1468 1952 c-20 -12 -28 -25 -28 -46 0 -21 -4 -27 -15 -22 -9 3 -15
0 -15 -9 0 -9 6 -12 16 -8 14 5 16 2 10 -20 -5 -20 -3 -25 8 -21 8 3 17 1 21
-5 3 -6 -1 -11 -9 -11 -9 0 -16 -5 -16 -11 0 -7 -10 -9 -26 -5 -17 5 -23 3
-19 -4 10 -16 72 -12 79 6 8 21 8 20 -11 39 -24 25 -18 105 8 105 6 0 7 -5 3
-12 -4 -7 -3 -8 5 -4 6 4 9 11 6 16 -3 5 3 13 12 19 10 6 14 10 8 10 -5 -1
-22 -8 -37 -17z"/>
<path d="M2057 1943 c-4 -3 -7 -15 -7 -25 0 -14 7 -18 33 -17 30 0 31 1 8 10
-19 8 -21 12 -11 24 10 12 10 15 -2 15 -8 0 -18 -3 -21 -7z"/>
<path d="M1708 1913 c-9 -16 -26 -38 -37 -50 -17 -18 -18 -23 -6 -33 8 -7 13
-16 10 -20 -3 -5 4 -6 14 -3 12 3 23 18 27 37 4 17 9 25 12 17 3 -10 10 -8 24
10 l19 24 -7 -30 c-7 -27 -6 -29 9 -17 9 8 13 20 10 29 -4 9 -2 14 3 10 6 -3
16 -2 24 3 10 6 2 8 -24 6 -22 -1 -42 -8 -44 -14 -2 -7 -7 -10 -12 -7 -13 8
-40 -24 -34 -40 4 -8 2 -15 -4 -15 -15 0 -9 37 10 59 23 27 40 61 31 61 -5 0
-16 -12 -25 -27z"/>
<path d="M2293 1924 c-18 -19 -16 -23 7 -17 11 3 33 1 49 -5 23 -8 35 -6 60 9
17 10 31 21 31 24 0 3 -11 -2 -25 -11 -25 -16 -93 -13 -105 6 -3 4 -11 2 -17
-6z"/>
<path d="M2205 1909 c-15 -6 -11 -7 15 -3 19 4 32 3 28 -1 -16 -17 19 -33 53
-25 30 7 31 8 8 9 -15 1 -32 8 -39 16 -14 17 -35 18 -65 4z"/>
<path d="M1599 1893 c33 -22 69 -25 80 -5 8 14 4 17 -25 18 -21 0 -30 -2 -22
-7 7 -4 10 -11 6 -14 -3 -3 -13 1 -21 10 -9 8 -21 15 -29 15 -7 0 -2 -7 11
-17z"/>
<path d="M1910 1893 c8 -17 8 -29 0 -44 -7 -11 -9 -23 -6 -27 3 -3 6 0 6 7 0
7 4 9 10 6 6 -4 7 1 3 11 -4 12 -3 15 5 10 17 -10 16 -49 0 -40 -10 5 -10 4
-1 -6 17 -18 30 -5 36 37 4 24 2 40 -6 45 -20 13 -29 9 -23 -9 4 -11 -1 -9
-15 7 -18 23 -19 23 -9 3z"/>
<path d="M1142 1870 c-8 -17 -21 -30 -31 -30 -9 0 -22 -5 -29 -12 -18 -18 -15
-83 4 -99 15 -12 16 -8 13 38 -4 48 -3 51 21 51 13 0 26 5 28 11 2 6 7 9 11 7
4 -3 7 11 7 30 0 42 -7 43 -24 4z"/>
<path d="M2080 1870 c6 -12 23 -17 56 -18 26 0 57 -5 68 -12 16 -8 34 -7 75 3
l54 14 -61 6 c-34 4 -75 4 -92 1 -19 -4 -36 -1 -46 7 -9 7 -27 14 -40 15 -19
1 -21 -2 -14 -16z"/>
<path d="M1837 1855 c-4 -8 -2 -17 3 -20 5 -3 7 -14 5 -25 -3 -17 -1 -18 15
-8 17 11 17 13 2 26 -13 10 -14 15 -4 18 16 7 15 24 -2 24 -8 0 -16 -7 -19
-15z"/>
<path d="M2443 1840 c-24 -10 -43 -24 -43 -30 0 -6 12 -3 28 8 15 10 41 24 57
30 17 6 23 11 15 11 -8 0 -34 -8 -57 -19z"/>
<path d="M2959 1856 c-2 -2 -17 -6 -34 -9 -16 -3 -46 -12 -65 -20 -35 -16 -35
-16 -5 -11 17 2 56 5 88 5 49 1 57 4 57 20 0 17 -28 27 -41 15z"/>
<path d="M1590 1831 c-8 -6 -17 -8 -21 -5 -4 2 -9 -3 -13 -11 -7 -19 4 -19 32
1 22 15 47 11 37 -7 -7 -10 8 -12 18 -2 4 3 -1 12 -11 19 -20 16 -23 16 -42 5z"/>
<path d="M1774 1819 c-3 -5 -10 -6 -16 -3 -6 4 -8 2 -4 -4 3 -6 -4 -18 -16
-26 -12 -9 -19 -19 -15 -22 4 -4 16 3 26 15 11 13 24 21 28 18 5 -3 17 1 28 9
10 8 17 14 14 15 -2 0 -12 2 -21 4 -10 2 -20 -1 -24 -6z"/>
<path d="M1280 1790 c-14 -11 -30 -20 -36 -20 -5 0 -24 -20 -42 -45 -32 -46
-64 -65 -106 -65 -13 0 -50 -18 -82 -40 -33 -22 -73 -43 -91 -46 -34 -6 -91
-58 -74 -68 5 -4 13 -1 18 6 15 24 135 84 250 125 59 21 81 34 106 66 18 22
45 52 61 68 35 33 32 46 -4 19z"/>
<path d="M2090 1788 c-25 -24 -25 -28 0 -28 11 0 19 5 18 11 -2 6 7 12 19 14
33 3 38 12 9 17 -16 3 -33 -2 -46 -14z"/>
<path d="M1586 1785 c-3 -8 -10 -15 -16 -15 -6 0 -8 5 -5 10 9 15 -16 11 -45
-6 l-25 -15 33 5 c30 5 32 4 21 -15 -6 -11 -16 -18 -23 -16 -7 3 -13 -1 -13
-9 0 -8 9 -14 19 -14 12 0 16 -4 12 -12 -4 -7 -3 -8 5 -4 9 6 9 11 -1 24 -11
13 -10 15 5 9 11 -4 16 -3 12 3 -3 6 3 10 14 10 10 0 21 5 23 12 3 8 9 8 22 1
17 -9 17 -11 1 -26 -15 -15 -15 -17 -1 -17 11 0 16 -9 16 -27 0 -38 9 -24 12
20 1 20 7 37 13 37 5 0 3 5 -5 10 -12 7 -12 12 -2 22 9 9 12 9 12 0 0 -6 7 -9
16 -5 12 4 11 8 -8 18 -19 10 -25 9 -34 -2 -10 -11 -13 -11 -17 -1 -4 10 -6
10 -6 1 -1 -7 -6 -13 -12 -13 -5 0 -8 4 -4 9 3 5 1 12 -4 15 -5 3 -11 -1 -15
-9z"/>
<path d="M1803 1793 c-7 -2 -13 -12 -14 -21 0 -14 -2 -13 -9 3 -8 19 -9 19 -9
-1 -1 -14 7 -24 19 -27 11 -3 18 -1 15 3 -3 5 1 11 7 13 10 4 9 6 -1 6 -11 1
-11 4 -1 16 13 16 13 16 -7 8z"/>
<path d="M2877 1769 c-48 -15 -114 -42 -147 -60 -65 -35 -76 -52 -13 -21 34
17 105 39 236 72 26 7 47 16 47 20 0 19 -42 15 -123 -11z"/>
<path d="M1420 1760 c-8 -5 -11 -10 -7 -10 5 0 1 -8 -9 -17 -17 -17 -17 -18 7
-22 13 -1 28 -8 32 -15 4 -6 5 1 1 15 -3 15 -1 30 5 33 15 10 14 26 -1 26 -7
0 -20 -5 -28 -10z"/>
<path d="M1838 1739 c-14 -24 -15 -33 -6 -43 10 -11 15 -11 25 0 16 15 17 34
2 34 -6 0 -8 9 -4 20 9 29 3 25 -17 -11z"/>
<path d="M1700 1745 c0 -7 -7 -18 -15 -23 -13 -7 -14 -14 -6 -35 6 -15 16 -27
22 -27 6 0 8 -7 5 -16 -3 -8 -2 -12 4 -9 14 8 13 35 -1 35 -6 0 -9 9 -6 20 3
11 0 20 -6 20 -7 0 -4 7 6 14 19 14 23 36 7 36 -5 0 -10 -7 -10 -15z"/>
<path d="M2480 1725 c-11 -13 -8 -14 20 -11 45 5 64 26 23 26 -17 0 -36 -7
-43 -15z"/>
<path d="M496 1708 c-3 -13 -6 -25 -7 -28 0 -3 -5 -13 -11 -24 -7 -13 -7 -16
1 -12 6 4 20 25 30 47 14 29 16 39 6 39 -7 0 -15 -10 -19 -22z"/>
<path d="M2850 1691 c-19 -11 -45 -24 -57 -30 -13 -6 -23 -15 -23 -21 0 -16
30 -12 36 5 8 21 25 19 18 -2 -3 -10 3 -6 12 10 10 15 26 27 35 27 9 0 19 7
23 15 7 20 -2 19 -44 -4z"/>
<path d="M149 1679 c-19 -28 -100 -30 -129 -4 -11 10 -20 13 -20 7 0 -6 6 -13
13 -15 9 -4 9 -6 0 -6 -7 -1 -13 -5 -13 -11 0 -5 20 -10 45 -10 43 0 45 -1 66
-47 12 -27 25 -50 29 -53 4 -3 28 -37 53 -76 l45 -71 -36 -11 c-23 -7 -38 -8
-42 -2 -8 13 -68 -7 -94 -32 -11 -10 -28 -20 -38 -24 -22 -7 -14 -24 12 -24
11 0 25 10 31 23 28 52 69 61 90 20 22 -44 44 -64 62 -57 15 5 14 8 -5 24 -20
16 -21 20 -8 35 14 17 13 17 -7 6 -13 -6 -23 -8 -23 -3 0 5 11 14 25 20 32 15
56 16 35 2 -13 -8 -13 -10 2 -10 9 0 31 -20 47 -44 17 -25 38 -51 46 -60 8 -8
12 -17 7 -20 -16 -9 -96 -35 -100 -31 -2 2 6 6 17 10 29 9 27 28 -1 20 -22 -7
-23 -7 -3 8 19 14 18 15 -10 11 l-30 -5 25 16 25 16 -25 -7 c-14 -4 -27 -10
-30 -14 -16 -23 -89 -18 -93 6 -1 5 -6 7 -12 4 -5 -2 -32 -4 -60 -3 -38 1 -44
-1 -25 -7 14 -4 41 -9 60 -9 47 -2 77 -20 35 -22 -16 0 -39 -5 -50 -10 -24
-11 23 -4 98 13 52 13 62 8 72 -34 7 -26 5 -28 -21 -28 -16 -1 -40 -7 -54 -15
-27 -16 -10 -21 19 -6 9 5 36 12 59 14 23 2 46 8 50 12 4 5 -1 5 -10 2 -10 -3
-20 -2 -22 2 -3 5 18 18 46 30 46 19 54 20 67 7 12 -13 11 -16 -15 -27 -16 -7
-36 -18 -44 -25 -8 -7 -24 -14 -35 -16 -19 -5 -19 -5 -2 -13 12 -5 25 -1 40
12 32 29 66 45 79 37 7 -4 2 -12 -13 -20 -13 -7 -20 -13 -16 -14 5 0 16 4 26
10 14 7 24 3 46 -20 l28 -30 -34 -15 c-32 -15 -22 -15 27 0 34 11 39 -22 6
-39 -15 -9 -22 -15 -17 -16 6 0 20 7 31 15 19 13 23 12 43 -9 12 -12 19 -25
16 -28 -3 -3 1 -11 10 -18 9 -7 19 -9 23 -5 4 4 1 10 -5 12 -19 7 -16 30 5 38
14 5 12 9 -13 19 -16 7 -77 63 -135 124 -151 158 -299 408 -276 467 3 9 10 14
15 11 5 -3 11 1 15 9 9 23 -10 27 -25 4z"/>
<path d="M1403 1693 c-17 -3 -23 -11 -23 -29 0 -25 0 -25 25 -7 13 10 25 24
25 31 0 6 -1 11 -2 11 -2 -1 -13 -4 -25 -6z"/>
<path d="M1574 1691 c4 -6 0 -14 -9 -17 -13 -6 -14 -8 -3 -15 10 -7 9 -9 -4
-9 -10 0 -18 -4 -18 -9 0 -5 8 -8 18 -7 9 0 16 -5 15 -11 -3 -15 6 -16 26 -4
11 7 10 12 -7 29 -13 13 -17 23 -10 30 6 6 5 12 -3 17 -8 5 -10 4 -5 -4z"/>
<path d="M2302 1670 l-82 -25 44 -11 c37 -8 43 -8 34 3 -8 10 -4 13 21 13 18
0 30 4 27 9 -9 14 25 23 40 10 11 -9 15 -7 20 5 4 9 4 20 0 23 -3 4 -6 -2 -7
-13 0 -15 -2 -16 -7 -3 -6 13 -17 12 -90 -11z"/>
<path d="M1774 1654 c-16 -38 -11 -90 7 -78 6 3 8 12 5 20 -7 19 4 74 16 74 5
0 6 -5 2 -12 -4 -7 -3 -8 5 -4 9 6 9 11 0 22 -16 20 -18 18 -35 -22z"/>
<path d="M2930 1681 c0 -7 -8 -11 -17 -9 -10 2 -19 -5 -21 -16 -4 -17 -2 -17
19 -3 15 11 27 13 40 7 10 -6 25 -7 33 -4 22 8 20 34 -1 33 -11 0 -13 -3 -5
-6 6 -2 10 -9 7 -14 -4 -5 -17 -2 -31 7 -16 11 -24 12 -24 5z"/>
<path d="M1505 1660 c-3 -5 -17 -10 -31 -10 -14 0 -23 -4 -19 -9 3 -5 1 -12
-5 -16 -5 -3 -10 -14 -10 -23 1 -15 2 -15 11 1 6 9 14 15 19 12 4 -3 11 2 14
11 3 8 11 12 17 8 8 -5 9 -3 4 6 -6 10 -4 12 8 7 11 -4 14 -2 10 9 -6 17 -10
17 -18 4z"/>
<path d="M2160 1618 c-42 -20 -74 -48 -64 -57 2 -2 12 3 22 12 10 10 28 17 40
17 21 0 52 24 52 41 0 5 -1 9 -2 8 -2 0 -23 -10 -48 -21z"/>
<path d="M1477 1600 c-16 -15 -17 -22 -6 -42 17 -32 16 -32 34 -14 15 15 15
16 -2 16 -15 0 -15 2 -3 9 8 6 18 7 22 5 4 -3 8 0 8 7 0 6 -8 9 -20 6 -17 -4
-20 -2 -15 14 8 23 5 23 -18 -1z"/>
<path d="M1651 1603 c-5 -10 -11 -33 -14 -51 -6 -35 -17 -56 -17 -31 0 11 -2
11 -10 -1 -7 -11 -4 -16 13 -21 12 -3 21 -11 19 -18 -4 -22 29 -24 52 -2 12
11 27 21 33 21 6 0 13 9 16 21 5 20 5 20 -16 2 l-21 -18 17 27 c15 24 15 28 1
42 -21 22 -52 22 -34 1 7 -8 16 -12 21 -9 5 3 6 -2 3 -10 -3 -9 -10 -16 -15
-16 -6 0 -5 -8 0 -19 15 -27 -10 -47 -38 -31 -12 6 -21 15 -21 21 0 6 4 8 9 5
12 -8 34 21 26 34 -5 8 -12 7 -23 -2 -16 -12 -16 -11 -1 7 19 24 31 65 18 65
-4 0 -13 -8 -18 -17z"/>
<path d="M1290 1599 c0 -5 -5 -7 -11 -3 -6 3 -26 -2 -44 -12 -29 -15 -33 -23
-32 -51 1 -18 3 -33 4 -33 1 0 9 14 18 30 9 17 22 30 30 30 8 0 15 5 15 11 0
6 6 9 14 6 8 -3 16 2 19 14 3 10 1 19 -4 19 -5 0 -9 -5 -9 -11z"/>
<path d="M1580 1586 c0 -9 -5 -16 -11 -16 -5 0 -7 5 -3 12 4 7 3 8 -4 4 -7 -4
-12 -14 -12 -22 0 -9 -5 -12 -12 -8 -7 4 -8 3 -4 -5 4 -6 12 -8 18 -5 8 5 9
-1 5 -17 -6 -23 -5 -23 15 4 16 22 23 25 34 16 12 -10 13 -8 7 7 -4 10 -13 25
-20 32 -11 11 -13 11 -13 -2z"/>
<path d="M2686 1574 c-2 -6 2 -20 10 -31 15 -17 15 -17 11 5 -3 12 -1 22 4 22
5 0 9 4 9 8 0 13 -29 10 -34 -4z"/>
<path d="M290 1576 c0 -1 27 -30 60 -66 33 -36 60 -59 60 -53 0 6 -21 33 -47
60 -26 26 -46 51 -46 54 1 3 -5 6 -13 6 -7 0 -14 -1 -14 -1z"/>
<path d="M430 1561 c0 -5 7 -11 16 -13 24 -4 33 -118 10 -118 -8 0 -20 8 -25
18 -7 11 -11 12 -11 4 0 -22 108 -122 132 -122 17 0 7 17 -17 28 -34 16 -55
63 -54 119 2 55 -2 75 -16 85 -14 11 -35 10 -35 -1z"/>
<path d="M2197 1553 c-4 -4 7 -13 25 -20 19 -8 35 -10 41 -4 5 5 -5 13 -24 20
-38 13 -34 13 -42 4z"/>
<path d="M2040 1536 c-6 -8 -19 -12 -28 -9 -13 4 -14 3 -3 -5 9 -7 10 -12 2
-16 -6 -4 -16 -17 -22 -28 -11 -20 -10 -20 19 3 17 13 31 29 31 35 1 6 11 16
24 22 16 8 17 11 6 11 -9 1 -22 -5 -29 -13z"/>
<path d="M1414 1531 c-10 -10 -3 -23 11 -18 8 4 27 0 42 -8 24 -13 25 -15 8
-16 -11 -1 -23 -1 -27 0 -4 0 -5 -5 -2 -13 3 -7 -2 -16 -11 -20 -9 -3 -14 -10
-11 -14 3 -5 -1 -18 -9 -28 -8 -10 -14 -23 -15 -29 0 -5 5 -3 10 5 8 11 9 8 4
-12 -3 -16 -4 -28 0 -28 11 0 37 61 30 73 -4 7 2 4 14 -6 16 -15 19 -24 12
-43 -7 -17 -6 -22 3 -18 7 2 13 19 14 37 2 17 9 37 18 43 8 6 13 13 11 15 -2
2 -6 18 -10 34 -5 22 -4 26 4 15 8 -12 10 -11 10 8 0 19 -3 21 -19 12 -26 -13
-31 -13 -31 4 0 13 -44 18 -56 7z"/>
<path d="M2619 1517 c-14 -12 -24 -27 -22 -34 3 -7 14 -2 29 13 34 30 27 51
-7 21z"/>
<path d="M1241 1509 c-23 -25 -27 -39 -10 -39 5 0 8 4 4 9 -3 5 -1 12 5 16 5
3 10 -1 10 -10 0 -22 -18 -55 -31 -55 -6 0 -7 5 -4 10 3 6 2 10 -4 10 -5 0 -9
-9 -8 -19 3 -39 56 9 62 56 2 15 4 30 4 32 1 2 7 -1 14 -7 8 -7 18 -7 27 -2
13 8 12 10 -2 10 -9 0 -23 3 -31 6 -8 3 -24 -5 -36 -17z"/>
<path d="M561 1507 c-12 -15 -3 -123 9 -110 11 11 19 113 10 118 -4 3 -13 -1
-19 -8z"/>
<path d="M1395 1489 c4 -5 -1 -19 -10 -29 -9 -10 -13 -20 -8 -23 4 -2 18 11
30 29 22 33 22 34 2 34 -12 0 -17 -4 -14 -11z"/>
<path d="M1561 1481 c3 -31 -1 -41 -16 -41 -8 0 -15 -5 -15 -11 0 -7 -8 -18
-17 -26 -10 -8 -12 -12 -5 -8 6 3 12 1 12 -4 0 -6 -4 -11 -10 -11 -5 0 -10 -6
-10 -12 1 -8 8 -4 18 8 10 11 22 19 28 17 10 -3 24 35 28 72 1 6 5 15 8 21 4
6 0 11 -8 11 -8 0 -14 -7 -13 -16z"/>
<path d="M2913 1488 c0 -7 -4 -25 -8 -40 -5 -21 -4 -28 8 -28 10 0 13 8 9 25
-2 14 1 32 8 40 10 12 10 15 -2 15 -8 0 -15 -6 -15 -12z"/>
<path d="M1600 1472 c0 -7 4 -10 10 -7 6 4 7 -1 3 -12 -5 -15 -3 -16 7 -6 21
19 20 39 -1 39 -11 0 -19 -6 -19 -14z"/>
<path d="M2831 1468 c-9 -23 2 -48 21 -48 6 0 5 6 -2 15 -6 8 -9 23 -5 35 9
27 -4 26 -14 -2z"/>
<path d="M2951 1480 c-8 -85 -8 -120 -1 -120 5 0 7 7 4 15 -4 8 -1 21 5 29 8
9 8 26 2 52 -5 22 -10 32 -10 24z"/>
<path d="M58 1464 c-16 -8 -28 -20 -28 -26 0 -9 3 -9 12 0 20 20 40 14 68 -19
23 -28 27 -30 39 -15 11 14 10 17 -10 25 -13 5 -18 10 -11 10 24 2 12 21 -14
21 -14 0 -23 4 -19 10 9 14 -5 12 -37 -6z"/>
<path d="M1583 1435 c-7 -8 -10 -21 -7 -30 4 -9 -2 -25 -11 -35 -10 -11 -13
-20 -7 -20 15 0 34 37 38 72 4 32 4 32 -13 13z"/>
<path d="M2539 1429 c-7 -13 -17 -19 -29 -16 -13 3 -17 0 -13 -9 3 -8 -1 -14
-8 -14 -7 0 -9 -3 -6 -7 12 -11 77 31 77 49 0 24 -7 23 -21 -3z"/>
<path d="M1356 1365 c-4 -14 -10 -23 -15 -20 -5 2 -12 -2 -15 -11 -3 -8 -10
-12 -16 -9 -5 3 -10 -1 -10 -10 0 -11 -5 -15 -16 -11 -8 3 -13 2 -11 -2 6 -9
-19 -33 -27 -25 -3 4 -6 2 -6 -4 0 -17 -52 -31 -94 -27 -25 3 -35 1 -31 -6 7
-12 -59 -11 -85 1 -34 16 -100 31 -113 26 -8 -3 -19 -1 -24 4 -6 6 -18 1 -33
-13 -22 -21 -22 -22 -4 -29 18 -7 18 -8 -1 -8 -16 -1 -17 -3 -5 -11 17 -11 30
4 23 29 -3 12 3 16 29 16 23 0 34 -5 36 -18 3 -14 0 -16 -22 -8 -22 9 -24 8
-20 -12 3 -12 6 -27 6 -34 2 -19 29 -25 47 -10 9 8 22 12 30 9 12 -4 12 -3 0
10 -7 8 -21 13 -30 11 -10 -3 -26 0 -36 7 -17 11 -17 11 0 6 24 -8 60 11 50
27 -5 9 -3 9 9 0 8 -7 18 -10 22 -6 4 4 4 0 0 -10 -5 -14 0 -17 37 -17 131 1
224 32 297 100 36 34 42 37 37 18 -4 -13 -12 -28 -17 -35 -5 -7 -6 -18 -2 -24
4 -7 3 -9 -3 -6 -5 3 -22 -6 -39 -19 -21 -19 -23 -21 -4 -10 49 31 55 21 30
-46 -11 -30 -23 -41 -66 -59 -29 -13 -51 -26 -48 -30 2 -4 -4 -9 -13 -12 -17
-4 -17 -4 -1 -11 11 -5 23 -2 32 7 9 8 25 12 40 10 15 -3 34 1 43 8 9 8 14 9
10 3 -9 -15 56 -23 80 -10 17 9 17 8 0 -11 -14 -16 -14 -20 -2 -20 8 0 16 6
19 14 3 7 11 13 17 13 8 0 8 -4 2 -12 -17 -23 -21 -44 -11 -59 8 -11 9 -10 4
4 -5 15 -2 17 14 12 12 -4 20 -2 20 5 0 6 -5 8 -11 4 -7 -4 -10 1 -7 12 2 11
6 17 9 14 9 -8 40 21 33 31 -3 5 -13 5 -23 0 -10 -6 -23 -6 -31 -1 -13 8 -12
12 5 24 12 9 15 15 7 16 -18 0 -5 20 13 20 9 0 12 -8 10 -20 -2 -12 0 -18 6
-14 6 3 8 9 5 12 -3 3 -2 10 4 16 6 8 2 12 -14 14 -13 1 -29 -5 -36 -13 -7 -8
-9 -15 -6 -15 4 0 -5 -11 -21 -24 -15 -13 -31 -22 -36 -19 -4 2 3 13 15 23
l23 19 -25 1 c-18 0 -21 -3 -12 -9 10 -6 7 -10 -12 -13 -36 -7 -44 11 -15 33
13 10 20 19 16 19 -5 0 3 13 16 30 28 32 42 68 33 77 -3 4 -6 -2 -6 -12 0 -14
-3 -15 -15 -5 -11 9 -12 16 -5 25 5 6 7 15 3 19 -4 4 -2 11 5 15 9 6 10 15 1
39 -13 38 -34 42 -43 7z"/>
<path d="M2336 1330 c-26 -22 -44 -40 -38 -40 6 0 17 7 26 15 8 8 19 15 25 15
6 0 11 5 11 10 0 6 7 10 15 10 8 0 15 7 15 15 0 19 3 21 -54 -25z"/>
<path d="M1527 1346 c-4 -10 -12 -14 -19 -10 -7 4 -10 4 -6 -1 8 -9 -22 -65
-34 -65 -4 0 -8 -7 -8 -15 0 -7 -6 -18 -13 -22 -8 -4 -17 -17 -21 -27 -7 -20
-7 -20 16 0 52 44 69 64 64 73 -4 5 -1 13 5 17 8 5 9 3 4 -6 -5 -9 -4 -11 4
-6 6 4 9 12 5 17 -3 5 0 16 6 24 7 8 10 20 8 27 -3 8 -7 6 -11 -6z"/>
<path d="M2145 1311 c-23 -26 -25 -32 -9 -23 26 14 47 39 42 50 -1 4 -16 -8
-33 -27z"/>
<path d="M616 1330 c10 -10 104 -31 133 -29 9 0 -9 7 -39 15 -88 22 -104 24
-94 14z"/>
<path d="M1455 1324 c3 -12 -1 -27 -10 -34 -8 -7 -15 -22 -15 -34 0 -17 2 -18
9 -6 6 8 7 18 5 22 -3 4 -1 8 4 8 5 0 14 12 20 26 7 14 8 23 3 20 -5 -4 -12 0
-15 6 -3 7 -4 4 -1 -8z"/>
<path d="M2888 1268 c6 -25 22 -39 34 -32 13 9 9 24 -7 24 -8 0 -15 7 -15 15
0 8 -4 15 -9 15 -5 0 -7 -10 -3 -22z"/>
<path d="M2240 1242 c-48 -72 -81 -145 -67 -154 7 -4 14 -2 16 5 2 7 10 28 19
47 8 19 15 40 16 47 1 6 10 22 22 35 29 34 35 46 26 51 -4 3 -19 -11 -32 -31z"/>
<path d="M2052 1250 c-32 -30 -27 -45 8 -20 16 11 32 25 35 30 11 18 -21 10
-43 -10z"/>
<path d="M754 1205 c-12 -8 -10 -15 11 -39 14 -16 28 -26 33 -21 4 4 1 10 -5
12 -24 8 -13 23 12 19 14 -3 23 -1 20 5 -4 5 -1 9 4 9 6 0 11 -5 11 -11 0 -5
5 -7 11 -3 8 4 8 9 0 17 -9 9 -17 8 -31 -1 -12 -7 -21 -8 -25 -2 -3 6 -1 10 4
10 6 0 11 4 11 9 0 12 -38 10 -56 -4z"/>
<path d="M1739 1177 c-2 -15 -8 -26 -13 -25 -9 3 -30 -42 -23 -48 9 -9 48 60
44 79 -3 19 -4 18 -8 -6z"/>
<path d="M1953 1177 c-18 -12 -31 -28 -28 -35 5 -14 -39 -65 -48 -55 -4 3 -9
-6 -13 -21 -3 -14 -10 -23 -15 -20 -5 3 -9 -3 -9 -13 0 -10 -12 -26 -28 -36
-25 -18 -86 -89 -106 -126 -11 -21 71 55 155 143 61 64 148 187 132 185 -5 0
-23 -10 -40 -22z"/>
<path d="M869 1162 c-1 -4 -1 -11 0 -16 1 -5 -5 -6 -14 -2 -9 3 -13 2 -10 -4
4 -6 -12 -10 -41 -10 -26 0 -44 -3 -41 -7 4 -3 22 -6 41 -5 41 2 66 -21 40
-36 -13 -7 -11 -9 12 -9 16 0 36 -3 45 -7 11 -5 16 -2 16 9 0 9 -6 14 -14 11
-8 -3 -11 -1 -8 4 3 6 -1 10 -10 10 -9 0 -13 4 -10 10 4 6 -1 7 -12 3 -17 -6
-17 -5 1 15 14 16 23 19 37 12 25 -14 33 -12 17 3 -17 17 -48 29 -49 19z"/>
<path d="M1027 1158 c6 -11 83 -9 108 2 14 6 -1 8 -47 7 -36 -1 -64 -5 -61 -9z"/>
<path d="M60 1132 c-24 -4 -24 -5 -5 -13 14 -7 8 -8 -20 -4 -29 3 -34 2 -20
-5 19 -8 19 -9 1 -9 -11 -1 -17 -3 -14 -6 3 -3 31 1 64 9 36 9 49 15 34 16
l-25 2 25 8 c19 6 21 8 5 8 -11 -1 -31 -3 -45 -6z"/>
<path d="M1509 1135 c-1 -3 -2 -13 -3 -22 -1 -10 -5 -24 -9 -30 -8 -13 -2 -17
18 -13 5 1 -3 -10 -18 -24 -26 -24 -37 -43 -18 -31 6 3 15 -3 21 -12 9 -13 10
-14 7 -2 -3 9 1 16 9 16 8 0 14 -7 15 -16 0 -11 2 -12 6 -3 2 6 9 10 14 7 10
-7 0 24 -14 42 -5 7 -10 31 -10 53 -1 22 -5 40 -9 40 -4 0 -9 -2 -9 -5z"/>
<path d="M900 1110 c0 -10 22 -14 50 -10 12 2 11 -3 -4 -19 -21 -23 -20 -23
37 -25 27 -1 36 3 32 13 -4 9 0 11 11 7 8 -3 21 -6 27 -6 7 0 6 -4 -3 -10 -9
-6 -10 -10 -3 -10 6 0 15 5 18 10 4 6 12 10 18 9 7 -1 30 0 52 1 l40 2 -30 13
c-16 7 -33 11 -36 9 -3 -2 -34 -4 -67 -5 -34 -1 -62 -7 -62 -12 0 -6 -3 -7 -7
-3 -8 7 -9 11 -12 37 -1 8 -6 8 -16 -1 -10 -9 -15 -9 -15 -1 0 6 -7 11 -15 11
-8 0 -15 -4 -15 -10z"/>
<path d="M216 1085 c-21 -9 -25 -14 -15 -20 8 -5 14 -4 17 3 2 7 8 10 13 6 5
-3 9 0 9 6 0 8 14 10 45 6 26 -4 45 -3 45 3 0 13 -80 11 -114 -4z"/>
<path d="M694 1078 c-5 -7 -2 -9 8 -6 9 4 15 0 15 -8 0 -9 -7 -12 -18 -9 -9 3
-21 1 -25 -6 -5 -8 3 -10 27 -7 20 3 49 -2 74 -13 22 -10 33 -19 24 -19 -9 0
-20 -7 -23 -16 -8 -22 -8 -26 4 -19 6 3 10 2 10 -4 0 -5 -6 -12 -12 -15 -7 -4
-3 -4 10 -2 12 2 22 0 22 -6 0 -5 5 -6 10 -3 18 11 11 35 -10 35 -26 0 -26 17
0 25 16 5 17 9 7 19 -6 8 -18 11 -24 9 -7 -3 -13 0 -13 7 0 6 -5 8 -12 4 -7
-4 -8 -3 -4 4 4 6 19 10 34 8 15 -2 21 -1 15 1 -7 2 -13 8 -13 13 0 12 -35 18
-53 9 -10 -6 -18 -5 -22 1 -8 13 -22 13 -31 -2z"/>
<path d="M345 1070 c-3 -5 -13 -7 -23 -3 -10 3 -8 -1 6 -12 13 -9 26 -14 29
-11 4 3 0 6 -8 7 -8 0 0 7 16 14 26 12 27 14 8 15 -12 0 -24 -4 -28 -10z"/>
<path d="M605 1070 c-14 -5 -6 -7 27 -6 25 0 44 4 41 8 -5 10 -42 9 -68 -2z"/>
<path d="M1647 1051 c-20 -40 -17 -49 7 -22 10 11 16 28 14 38 -3 14 -7 10
-21 -16z"/>
<path d="M850 1050 c0 -5 -8 -11 -17 -13 -17 -4 -17 -5 0 -6 11 -1 15 -6 11
-12 -3 -6 5 -3 20 6 15 10 29 15 33 11 3 -3 1 -6 -6 -6 -7 0 -10 -4 -7 -9 3
-4 17 -6 31 -3 14 2 31 -1 39 -7 10 -8 16 -9 21 -2 3 6 19 9 35 7 16 -2 27 0
25 4 -3 4 -22 8 -42 7 -21 0 -62 7 -90 16 -29 9 -53 12 -53 7z"/>
<path d="M1229 1050 c-8 -5 -24 -7 -35 -6 -20 4 -74 -23 -74 -36 0 -4 -5 -8
-11 -8 -5 0 -8 4 -5 9 3 4 -7 6 -22 3 -17 -4 -21 -7 -10 -10 9 -2 19 -10 22
-19 4 -11 2 -14 -9 -9 -8 3 -15 1 -15 -4 0 -5 8 -11 18 -13 13 -4 12 -5 -5 -6
-12 0 -25 4 -28 9 -9 14 -21 12 -38 -4 -11 -11 -22 -13 -43 -6 -16 4 -23 9
-15 9 8 1 12 3 9 6 -8 8 -39 -6 -33 -15 3 -4 -2 -11 -11 -14 -13 -5 -15 -1
-12 18 3 16 1 23 -7 20 -6 -3 -18 2 -25 11 -14 17 -50 20 -50 4 0 -6 7 -9 15
-6 8 4 17 2 20 -3 3 -5 0 -10 -7 -13 -7 -2 -5 -3 4 -2 9 2 24 -8 33 -21 9 -14
20 -22 25 -19 5 3 23 -4 39 -16 26 -19 35 -21 63 -12 l33 11 -36 1 c-20 1 -42
8 -49 16 -15 18 -10 18 25 5 14 -5 24 -6 21 -2 -3 5 15 7 39 6 25 -1 45 2 45
7 0 6 6 7 13 3 7 -5 6 0 -3 11 -14 17 -13 18 2 12 10 -3 20 -2 24 4 4 6 12 6
22 -3 14 -10 15 -10 5 2 -20 22 -15 28 23 23 24 -2 33 0 29 8 -4 6 -16 9 -26
6 -12 -3 -19 0 -19 8 0 12 6 12 38 1 30 -11 39 -11 49 0 10 10 10 14 0 17 -9
4 -9 6 1 6 7 1 10 6 7 11 -8 12 -15 12 -36 0z"/>
<path d="M595 1040 c3 -5 1 -19 -5 -30 -9 -17 -8 -20 10 -20 11 0 20 6 20 13
0 9 11 12 33 10 17 -2 26 0 20 3 -7 3 -13 12 -13 20 0 9 -12 14 -36 14 -20 0
-33 -4 -29 -10z"/>
<path d="M1729 1027 c-19 -13 -33 -29 -32 -35 2 -6 -3 -9 -10 -7 -12 5 -43
-33 -34 -41 8 -8 91 53 105 76 19 32 10 34 -29 7z"/>
<path d="M396 1033 c-4 -4 -33 -17 -64 -29 -31 -11 -58 -27 -61 -35 -3 -11 -1
-11 10 -3 19 15 91 39 108 35 8 -1 10 2 5 10 -5 9 -2 10 10 6 11 -5 15 -3 10
5 -5 8 -2 9 10 5 10 -4 15 -3 11 3 -7 12 -29 13 -39 3z"/>
<path d="M1321 1031 c-8 -5 -21 -7 -30 -4 -13 4 -13 3 -2 -5 11 -8 9 -11 -10
-15 -23 -4 -23 -4 3 -6 14 0 29 -7 32 -13 4 -7 4 -3 2 10 -2 12 0 20 5 16 5
-3 9 -12 9 -20 0 -20 10 -18 31 8 23 25 25 35 4 18 -15 -13 -39 -5 -30 11 8
11 4 11 -14 0z"/>
<path d="M70 1010 l-55 -18 45 -1 c35 0 42 2 30 10 -12 8 -9 9 10 4 33 -9 100
-12 100 -4 0 8 -47 29 -63 28 -7 0 -37 -8 -67 -19z"/>
<path d="M1391 993 c8 -9 6 -11 -8 -8 -12 2 -20 -2 -20 -10 0 -8 4 -12 9 -9 4
3 8 -1 8 -8 0 -9 3 -9 10 2 8 12 10 12 11 -5 1 -17 2 -16 9 5 13 39 11 46 -9
46 -15 0 -17 -4 -10 -13z"/>
<path d="M2112 912 c-12 -53 -22 -108 -22 -121 0 -23 1 -23 18 -8 10 10 22 14
25 10 4 -3 7 -1 7 5 0 6 -7 15 -16 20 -20 11 -9 36 12 28 8 -3 14 -1 14 4 0 6
-4 10 -10 10 -12 0 -12 54 0 90 4 14 8 19 9 12 1 -7 5 -11 10 -8 9 6 -9 56
-19 56 -4 0 -16 -44 -28 -98z"/>
<path d="M2886 985 c-7 -27 -1 -45 13 -45 9 0 8 57 -1 66 -3 3 -9 -7 -12 -21z"/>
<path d="M450 979 c-30 -13 -35 -18 -17 -14 19 4 26 2 22 -5 -10 -16 21 -23
44 -10 15 8 21 8 21 0 0 -6 5 -8 10 -5 6 4 8 11 5 16 -8 12 2 12 24 -1 12 -6
24 -5 35 3 14 10 9 12 -31 11 -26 0 -58 -6 -70 -12 -28 -15 -30 -15 -30 3 0
13 17 20 40 16 5 -1 6 3 2 9 -3 5 -7 10 -8 9 -1 0 -22 -9 -47 -20z"/>
<path d="M1465 967 c2 -22 0 -35 -6 -32 -5 4 -9 -3 -9 -14 0 -27 17 -36 28
-14 6 12 5 32 -4 58 l-14 40 5 -38z"/>
<path d="M1431 953 c0 -31 2 -34 9 -18 12 28 12 55 0 55 -5 0 -10 -17 -9 -37z"/>
<path d="M1946 954 c-27 -28 -29 -38 -5 -29 16 6 43 44 36 51 -2 2 -16 -8 -31
-22z"/>
<path d="M100 960 l-55 -7 55 -1 c30 -1 62 3 70 8 17 11 21 11 -70 0z"/>
<path d="M1340 950 c0 -6 7 -10 16 -10 8 0 12 -5 9 -10 -4 -6 -10 -8 -15 -5
-4 3 -11 -2 -14 -10 -4 -12 -2 -13 13 -5 14 7 22 6 32 -6 11 -13 10 -15 -6
-12 -10 1 -19 -3 -21 -10 -1 -7 0 -8 3 -2 8 16 23 1 17 -18 -2 -9 1 -7 7 6 7
12 16 22 21 22 12 0 -32 58 -49 64 -7 3 -13 1 -13 -4z"/>
<path d="M385 931 c-6 -5 -28 -14 -50 -21 -34 -11 -37 -14 -20 -21 29 -11 42
-10 25 2 -11 8 -8 9 13 4 20 -4 27 -2 22 6 -5 8 0 9 16 4 19 -5 21 -4 9 4 -13
9 -13 11 2 11 9 0 20 5 23 10 8 12 -27 13 -40 1z"/>
<path d="M663 929 c-5 -5 -24 -11 -41 -11 -20 -1 -29 -5 -25 -14 2 -7 -4 -14
-14 -17 -10 -2 -4 -2 12 1 17 3 44 6 61 6 17 1 37 7 44 15 11 11 9 12 -8 6
-17 -5 -21 -3 -16 9 7 19 2 20 -13 5z"/>
<path d="M779 929 c-13 -8 21 -14 69 -12 9 1 12 -7 9 -23 -2 -13 -3 -24 -2
-24 1 0 12 12 24 27 15 17 18 24 8 20 -9 -3 -18 1 -22 10 -4 12 -9 13 -17 5
-6 -6 -19 -7 -33 -2 -12 5 -28 4 -36 -1z"/>
<path d="M1267 934 c-4 -4 2 -14 14 -22 11 -8 23 -11 27 -8 10 11 11 36 0 36
-6 0 -8 -7 -4 -15 7 -20 -4 -19 -18 1 -6 8 -15 12 -19 8z"/>
<path d="M1565 918 c5 -28 -9 -48 -18 -26 -3 7 -6 5 -6 -6 -1 -11 -4 -17 -7
-13 -3 3 -14 -3 -25 -14 -11 -11 -24 -17 -28 -14 -5 2 -11 -2 -15 -10 -8 -22
-19 -18 -41 15 -16 24 -21 27 -28 14 -5 -9 -6 -18 -3 -21 3 -4 6 -1 6 7 0 10
3 10 15 0 21 -17 10 -29 -23 -24 -24 4 -25 3 -9 -10 22 -17 22 -30 0 -18 -12
7 -21 5 -32 -5 -13 -14 -16 -13 -29 3 -14 18 -14 18 -8 1 9 -28 -20 -66 -47
-59 -20 5 -21 4 -8 -11 12 -15 12 -17 -1 -12 -8 3 -23 -7 -36 -25 -19 -25 -26
-29 -43 -20 -11 6 -17 16 -13 21 4 8 0 8 -13 0 -15 -7 -23 -7 -32 2 -10 9 -10
6 0 -15 19 -44 -4 -104 -43 -112 -18 -3 -28 -11 -25 -18 4 -13 -29 -48 -45
-48 -4 0 -8 -6 -8 -14 0 -8 -11 -23 -25 -34 -14 -11 -25 -26 -25 -34 0 -11
-22 -39 -112 -137 -7 -8 -17 -27 -23 -42 -5 -16 -56 -75 -113 -133 l-103 -104
45 0 46 0 75 114 c41 63 75 119 75 123 0 5 3 11 8 13 4 1 43 48 86 103 170
215 333 354 535 457 92 47 180 106 181 121 0 14 -30 7 -50 -13 l-20 -20 -10
22 c-10 22 -10 21 -5 -4z"/>
<path d="M84 911 c42 -20 85 -18 145 5 20 8 25 12 11 9 -58 -14 -147 -17 -154
-6 -4 6 -15 11 -24 11 -9 -1 0 -9 22 -19z"/>
<path d="M500 911 c-8 -4 -25 -13 -37 -19 -12 -7 -24 -8 -28 -3 -3 5 0 12 5
14 6 3 5 4 -2 3 -7 -2 -12 -9 -10 -16 2 -7 -2 -16 -8 -20 -7 -4 2 -10 20 -13
22 -5 36 -2 48 9 15 15 14 16 -8 10 -14 -3 -2 5 25 19 28 14 41 25 30 24 -11
0 -27 -4 -35 -8z"/>
<path d="M1141 915 c-1 -6 5 -17 12 -24 10 -10 9 -11 -3 -6 -21 8 -55 -18 -45
-35 6 -10 10 -8 18 5 9 16 11 17 21 3 10 -13 15 -14 29 -3 19 14 13 45 -8 45
-7 0 -16 6 -18 13 -3 6 -6 7 -6 2z"/>
<path d="M904 899 c-3 -5 2 -9 10 -9 9 0 16 -5 16 -11 0 -5 -4 -7 -10 -4 -5 3
-7 0 -4 -8 5 -15 59 -28 81 -20 16 6 6 30 -12 30 -11 0 -12 -4 -3 -14 9 -11 6
-12 -13 -5 -13 5 -24 17 -24 27 0 19 -31 30 -41 14z"/>
<path d="M1249 887 c6 -8 12 -24 14 -37 3 -18 11 -24 29 -25 15 -1 25 4 25 12
0 9 -7 11 -20 7 -11 -3 -17 -2 -14 3 7 12 -20 53 -35 53 -7 0 -7 -4 1 -13z"/>
<path d="M385 881 c-3 -5 -20 -13 -38 -17 -28 -6 -29 -8 -12 -15 11 -4 27 -8
35 -8 9 0 8 3 -5 8 -17 7 -17 8 8 15 15 3 27 11 27 16 0 13 -7 13 -15 1z"/>
<path d="M2760 865 c-22 -23 -22 -26 -7 -43 10 -10 14 -22 10 -25 -3 -4 -1 -7
6 -7 9 0 11 6 6 18 -18 44 -18 53 4 59 11 3 21 9 21 14 0 16 -16 10 -40 -16z"/>
<path d="M1910 867 c-18 -14 -43 -67 -35 -75 9 -9 43 29 54 59 11 31 5 36 -19
16z"/>
<path d="M580 859 c-11 -8 -9 -9 10 -4 24 7 24 7 5 -8 -17 -14 -23 -14 -42 -1
-28 18 -30 17 -30 -1 0 -15 10 -19 36 -16 7 2 10 -2 6 -8 -3 -6 0 -11 7 -11 9
-1 7 -5 -4 -14 -23 -17 -23 -25 1 -23 11 0 18 4 15 8 -2 4 1 11 7 14 5 4 8 14
4 22 -4 13 1 15 35 9 22 -3 40 -4 40 -2 0 3 -68 46 -73 46 -1 0 -9 -5 -17 -11z"/>
<path d="M1 856 c8 -8 108 -10 116 -3 3 4 -22 7 -57 7 -35 0 -61 -2 -59 -4z"/>
<path d="M0 828 c0 -9 7 -19 16 -22 21 -8 214 -6 214 2 0 7 -21 10 -80 12 -14
0 -44 -2 -68 -6 -33 -5 -47 -2 -62 11 -17 16 -20 16 -20 3z"/>
<path d="M325 810 c-49 -16 -79 -29 -65 -29 14 -1 63 12 110 28 110 38 73 39
-45 1z"/>
<path d="M853 827 c-13 -5 -23 -14 -23 -19 0 -5 9 -4 19 2 12 6 22 6 26 1 6
-10 70 -4 95 10 11 6 8 9 -12 14 -19 5 -32 2 -44 -9 -14 -15 -18 -15 -28 -2
-8 11 -16 12 -33 3z"/>
<path d="M1062 800 c7 -11 21 -23 31 -26 13 -4 16 -9 9 -16 -12 -12 -5 -38 9
-38 5 0 9 10 9 21 0 17 5 20 24 17 16 -3 27 0 30 9 4 10 -1 12 -19 9 -17 -3
-32 2 -45 17 -11 11 -29 22 -40 24 -18 3 -19 1 -8 -17z"/>
<path d="M609 798 c-5 -24 -3 -33 9 -34 36 -4 37 -4 22 -14 -8 -5 -10 -10 -5
-10 6 0 19 10 29 21 18 21 18 22 -3 16 -22 -5 -27 3 -11 19 6 6 0 9 -15 9 -14
0 -26 -3 -26 -7z"/>
<path d="M406 788 c3 -4 -21 -15 -52 -24 -42 -14 -51 -20 -37 -25 27 -11 40
-10 23 2 -11 8 -8 9 15 5 22 -5 26 -4 15 4 -17 11 -1 14 24 4 13 -5 14 -9 5
-20 -14 -17 7 -20 31 -4 16 10 15 11 -20 28 -22 11 -23 12 -3 8 12 -2 24 1 25
6 3 7 13 6 27 -3 19 -11 25 -11 28 -1 3 6 10 9 15 6 7 -5 8 -2 3 5 -5 9 -10
10 -18 2 -16 -16 -30 -13 -23 4 4 12 -2 14 -28 12 -19 -1 -32 -5 -30 -9z"/>
<path d="M885 779 c-31 -16 -34 -19 -12 -14 20 4 27 1 27 -9 0 -9 -14 -18 -35
-22 -19 -3 -38 -10 -40 -15 -3 -4 -13 -6 -23 -3 -13 5 -14 4 -3 -4 7 -5 22 -7
34 -4 15 4 19 1 14 -10 -3 -9 0 -21 6 -27 8 -8 7 -11 -4 -11 -15 0 -69 -49
-69 -63 0 -4 6 -7 13 -7 11 0 24 13 88 90 l21 25 -24 6 c-20 6 -19 7 8 8 17 1
36 7 41 14 15 18 24 49 14 42 -5 -3 -12 -1 -15 4 -4 5 2 12 11 14 12 3 13 5 3
5 -8 0 -33 -9 -55 -19z"/>
<path d="M140 780 c-18 -6 -9 -8 35 -8 44 0 53 2 35 8 -14 4 -29 8 -35 8 -5 0
-21 -4 -35 -8z"/>
<path d="M2102 761 c-47 -29 68 -761 119 -761 5 0 6 7 3 15 -4 9 -1 15 7 15 8
0 7 5 -5 13 -9 7 -19 28 -22 47 -4 34 -16 85 -34 145 -5 17 -12 57 -14 90 -3
33 -11 87 -17 120 -7 33 -13 87 -14 121 -1 33 -5 66 -9 73 -4 6 -2 18 4 26 9
11 9 15 1 15 -14 0 -15 27 -1 32 5 2 7 14 2 30 -5 19 -11 25 -20 19z"/>
<path d="M178 753 c17 -2 47 -2 65 0 17 2 3 4 -33 4 -36 0 -50 -2 -32 -4z"/>
<path d="M1130 725 c0 -14 4 -25 9 -25 12 0 23 29 15 41 -10 18 -24 9 -24 -16z"/>
<path d="M1874 718 c-12 -19 -22 -88 -14 -93 13 -8 37 29 44 68 5 29 4 37 -8
37 -8 0 -18 -5 -22 -12z"/>
<path d="M160 710 c-19 -4 -48 -12 -63 -19 -34 -13 -50 -14 -43 -2 4 5 -2 8
-11 6 -10 -2 -24 -4 -31 -4 -7 -1 -10 -5 -7 -11 3 -5 27 -10 53 -10 26 0 54
-5 62 -10 13 -9 13 -10 0 -10 -19 -1 50 -39 70 -39 8 0 -2 7 -23 16 -25 10
-34 18 -27 23 9 5 6 10 -9 15 -11 3 -21 10 -21 15 0 10 7 12 95 28 32 6 39 10
20 10 -16 0 -46 -4 -65 -8z"/>
<path d="M331 709 c-14 -5 -63 -13 -110 -18 -77 -7 -80 -8 -29 -10 31 0 81 4
110 11 29 6 59 11 67 9 7 -1 10 2 6 8 -7 13 -12 13 -44 0z"/>
<path d="M1372 623 c-45 -50 -61 -73 -48 -73 7 0 108 121 104 125 -2 2 -27
-21 -56 -52z"/>
<path d="M298 645 c-6 -14 -18 -25 -27 -25 -14 0 -14 -2 -1 -10 20 -13 33 -13
25 0 -3 6 2 10 12 10 10 0 25 5 33 10 11 8 7 9 -15 5 l-30 -6 25 15 c16 9 29
11 36 5 8 -6 14 -4 18 6 4 12 -2 15 -30 15 -27 0 -37 -5 -46 -25z"/>
<path d="M165 591 c17 -11 41 -20 55 -20 19 1 21 2 6 6 -13 4 -15 7 -7 13 8 4
1 7 -16 7 -15 0 -37 3 -48 7 -11 5 -6 -1 10 -13z"/>
<path d="M260 582 c0 -4 5 -13 11 -19 17 -17 -41 -26 -77 -13 -21 8 -26 8 -18
0 17 -17 82 -24 99 -10 8 7 12 16 9 21 -5 9 9 13 34 10 6 -1 12 3 12 9 0 5
-16 10 -35 10 -19 0 -35 -4 -35 -8z"/>
<path d="M45 549 c28 -5 59 -11 71 -13 11 -2 26 -6 32 -10 7 -4 12 -5 12 -2 0
14 -61 33 -110 34 l-55 1 50 -10z"/>
<path d="M295 533 c-16 -9 -43 -19 -60 -23 l-30 -6 32 -5 c26 -4 40 0 65 22
38 32 36 35 -7 12z"/>
<path d="M1872 538 c-14 -18 -26 -118 -14 -118 22 0 42 39 42 83 0 47 -9 58
-28 35z"/>
<path d="M25 501 c-19 -4 2 -7 55 -7 67 0 76 1 45 7 -46 9 -59 9 -100 0z"/>
<path d="M280 482 c-30 -10 -61 -40 -48 -45 10 -4 10 -6 0 -6 -7 -1 -10 -6 -7
-11 9 -15 -45 -34 -59 -20 -6 6 -6 10 0 10 5 0 2 5 -6 10 -12 8 -12 10 5 10
18 0 18 1 -3 16 -14 10 -30 13 -40 8 -9 -4 -42 -11 -72 -15 l-55 -7 70 1 c69
2 70 2 70 -24 -1 -20 3 -25 15 -21 10 3 12 2 5 -6 -5 -6 -23 -13 -40 -15 -16
-2 -3 -2 29 0 63 5 121 27 111 44 -4 5 5 23 19 39 16 19 26 25 29 17 4 -9 6
-9 6 0 1 16 -10 22 -29 15z"/>
<path d="M1100 444 c-36 -20 -72 -42 -80 -51 -18 -18 119 53 140 73 20 20 13
17 -60 -22z"/>
<path d="M28 463 c18 -2 45 -2 60 0 15 2 0 4 -33 4 -33 0 -45 -2 -27 -4z"/>
<path d="M374 409 c-5 -8 3 -10 27 -7 37 6 73 -7 64 -23 -4 -5 -14 -5 -27 2
-15 8 -19 8 -14 0 5 -7 -1 -11 -15 -11 -19 0 -20 -2 -8 -17 10 -11 10 -14 2
-9 -7 4 -13 2 -13 -3 0 -6 11 -11 25 -11 14 0 25 -4 25 -8 0 -5 -16 -7 -36 -5
-20 1 -44 -2 -53 -7 -11 -7 -2 -9 34 -9 47 0 92 18 78 32 -3 4 3 7 15 7 15 0
22 6 22 19 0 13 7 19 26 19 14 0 33 7 42 16 16 16 13 17 -48 15 -36 0 -82 2
-102 5 -23 4 -39 2 -44 -5z"/>
<path d="M2 404 c8 -7 108 -7 115 0 4 3 -22 6 -57 6 -35 0 -61 -3 -58 -6z"/>
<path d="M1091 386 c-6 -8 -40 -27 -74 -44 -34 -17 -78 -44 -97 -62 l-35 -31
45 28 c25 16 64 37 87 47 35 16 108 76 91 76 -3 0 -11 -6 -17 -14z"/>
<path d="M220 354 c-13 -13 -31 -24 -40 -25 -10 0 -8 -3 5 -9 21 -8 21 -8 -50
-23 -11 -3 -3 -5 18 -6 21 0 36 -5 32 -10 -3 -5 0 -13 6 -17 19 -11 -11 -24
-61 -25 -25 0 -56 -5 -70 -9 -14 -5 8 -6 53 -3 50 4 77 2 77 -4 0 -6 -7 -14
-16 -17 -8 -3 -13 -10 -10 -15 4 -5 0 -12 -6 -14 -9 -4 -8 -6 2 -6 18 -1 30 7
50 33 9 12 10 17 3 12 -7 -4 -13 -3 -13 3 0 5 5 13 10 16 6 3 8 17 6 30 -3 14
-1 27 4 30 5 3 7 12 4 20 -3 7 4 23 15 34 12 12 21 23 21 26 0 11 -16 3 -40
-21z"/>
<path d="M1874 315 c-8 -19 5 -125 15 -125 27 0 38 45 25 109 -7 32 -30 42
-40 16z"/>
<path d="M337 283 c-4 -3 1 -13 10 -22 16 -15 15 -16 -8 -19 -26 -4 -52 -22
-31 -22 7 0 12 -4 12 -10 0 -12 -40 -54 -40 -42 0 4 -13 -13 -29 -38 -16 -25
-38 -52 -50 -60 -13 -9 -21 -25 -21 -44 0 -30 0 -30 29 15 15 24 55 71 87 105
32 33 73 79 90 100 l32 40 -38 1 c-21 1 -40 -1 -43 -4z"/>
<path d="M934 231 c-66 -36 -116 -72 -110 -78 2 -3 20 7 39 21 19 14 39 26 46
26 11 0 91 49 91 56 0 9 -18 2 -66 -25z"/>
<path d="M984 205 c-21 -20 -30 -31 -19 -26 30 15 82 60 69 61 -6 0 -28 -16
-50 -35z"/>
<path d="M190 158 c-14 -11 -18 -17 -10 -13 10 4 10 2 -2 -8 -11 -8 -15 -21
-11 -35 3 -15 0 -24 -11 -28 -9 -4 -22 -16 -28 -28 -8 -16 -4 -14 21 9 17 16
30 37 29 47 -2 9 1 16 5 15 9 -2 41 52 35 58 -2 2 -14 -5 -28 -17z"/>
<path d="M912 147 c-7 -7 -36 -26 -67 -42 -30 -16 -72 -47 -93 -70 -24 -26
-26 -30 -7 -13 17 15 44 33 60 40 39 16 125 79 125 90 0 12 -6 10 -18 -5z"/>
<path d="M920 79 c-57 -36 -102 -71 -97 -76 6 -6 121 63 137 82 22 26 7 24
-40 -6z"/>
<path d="M1915 60 c-11 -33 4 -60 32 -60 19 0 24 4 19 16 -3 9 -9 27 -12 40
-7 29 -30 32 -39 4z"/>
</g>
</svg>
